<?xml version="1.0" encoding="utf-8"?>
<!-- Generator: Adobe Illustrator 24.3.0, SVG Export Plug-In . SVG Version: 6.00 Build 0)  -->
<svg version="1.1" id="Слой_1" xmlns="http://www.w3.org/2000/svg" xmlns:xlink="http://www.w3.org/1999/xlink" x="0px" y="0px"
	 viewBox="0 0 240 150" style="enable-background:new 0 0 240 150;" xml:space="preserve">
<style type="text/css">
	.st0{fill:#F8F8FF;}
	.st1{fill:#D9E1E8;}
	.st2{fill:#FBFBFF;}
	.st3{fill:#E2EEFB;}
	.st4{fill:#B1CAE0;}
	.st5{fill:#D6DEEA;}
	.st6{fill:#4B556E;}
	.st7{fill:#3F3550;}
	.st8{fill:#BECEE5;}
	.st9{fill:#AEBDD4;}
	.st10{fill:#DFE5F3;}
	.st11{fill:#575270;}
	.st12{fill:#F68064;}
	.st13{fill:#F48873;}
	.st14{fill:#7D5C6F;}
	.st15{fill:#565372;}
	.st16{fill:#AEBCD6;}
	.st17{fill:#E87660;}
	.st18{fill:#DFE5F5;}
	.st19{fill:#8F9BA9;}
	.st20{fill:#9FA9B7;}
	.st21{fill:#B4BFD3;}
	.st22{fill:#EDC490;}
	.st23{fill:#C38975;}
	.st24{fill:none;stroke:#CEA272;stroke-miterlimit:10;}
	.st25{fill:none;stroke:#CCA275;stroke-width:0.25;stroke-miterlimit:10;}
	.st26{fill:none;stroke:#8E6846;stroke-width:0.25;stroke-miterlimit:10;}
	.st27{fill:#C66320;}
	.st28{fill:#F59D43;}
	.st29{fill:#E37C41;}
	.st30{fill:#EE731B;}
	.st31{fill:#FFFFFF;}
	.st32{fill:#FFB28C;}
	.st33{fill:#FA975E;}
	.st34{fill:#FEB082;}
	.st35{fill:#314462;}
	.st36{fill:#BC5F20;}
	.st37{fill:#DEDFE0;}
	.st38{fill:#FAA048;}
	.st39{fill:#E47B42;}
	.st40{fill:#2F435E;}
	.st41{fill:#E2926F;}
	.st42{fill:#1D4259;}
	.st43{fill:none;stroke:#1D4259;stroke-width:0.5;stroke-linecap:round;stroke-miterlimit:10;}
	.st44{fill:#D6E0F0;}
	.st45{fill:#FF3636;}
	.st46{fill:#F09976;}
</style>
<path class="st0" d="M111,127.3h109.9c20.6-17.7,16.2-52.8,15.4-59.5c-0.7-5.9-5.6-48.9-33.7-57.7c-21.4-6.8-48.8,10.2-73.1,10.9
	C105.3,21.6,87.3,11.4,68,5.2C48.8-1,17.1,8.6,7.3,43c-9.8,34.4,16,84.3,16,84.3C57.3,124.9,86.8,125.6,111,127.3z"/>
<g>
	<g>
		<rect x="145" y="19.1" class="st1" width="32.1" height="103"/>
		<g>
			<rect x="148.6" y="24.4" class="st2" width="3.5" height="15.5"/>
			<rect x="154" y="24.4" class="st2" width="3.5" height="15.5"/>
			<rect x="159.3" y="24.4" class="st2" width="3.5" height="15.5"/>
			<rect x="164.7" y="24.4" class="st2" width="3.5" height="15.5"/>
			<rect x="170" y="24.4" class="st2" width="3.5" height="15.5"/>
		</g>
		<g>
			<rect x="148.6" y="41.5" class="st2" width="3.5" height="15.5"/>
			<rect x="154" y="41.5" class="st2" width="3.5" height="15.5"/>
			<rect x="159.3" y="41.5" class="st2" width="3.5" height="15.5"/>
			<rect x="164.7" y="41.5" class="st2" width="3.5" height="15.5"/>
			<rect x="170" y="41.5" class="st2" width="3.5" height="15.5"/>
		</g>
		<g>
			<rect x="148.6" y="58.6" class="st2" width="3.5" height="15.5"/>
			<rect x="154" y="58.6" class="st2" width="3.5" height="15.5"/>
			<rect x="159.3" y="58.6" class="st2" width="3.5" height="15.5"/>
			<rect x="164.7" y="58.6" class="st2" width="3.5" height="15.5"/>
			<rect x="170" y="58.6" class="st2" width="3.5" height="15.5"/>
		</g>
		<g>
			<rect x="148.6" y="75.7" class="st2" width="3.5" height="15.5"/>
			<rect x="154" y="75.7" class="st2" width="3.5" height="15.5"/>
			<rect x="159.3" y="75.7" class="st2" width="3.5" height="15.5"/>
			<rect x="164.7" y="75.7" class="st2" width="3.5" height="15.5"/>
			<rect x="170" y="75.7" class="st2" width="3.5" height="15.5"/>
		</g>
		<g>
			<rect x="148.6" y="92.8" class="st2" width="3.5" height="15.5"/>
			<rect x="154" y="92.8" class="st2" width="3.5" height="15.5"/>
			<rect x="159.3" y="92.8" class="st2" width="3.5" height="15.5"/>
			<rect x="164.7" y="92.8" class="st2" width="3.5" height="15.5"/>
			<rect x="170" y="92.8" class="st2" width="3.5" height="15.5"/>
		</g>
		<g>
			<rect x="148.6" y="109.9" class="st2" width="3.5" height="12.2"/>
			<rect x="154" y="109.9" class="st2" width="3.5" height="12.2"/>
			<rect x="159.3" y="109.9" class="st2" width="3.5" height="12.2"/>
			<rect x="164.7" y="109.9" class="st2" width="3.5" height="12.2"/>
			<rect x="170" y="109.9" class="st2" width="3.5" height="12.2"/>
		</g>
	</g>
	<g>
		<rect x="56.5" y="17.7" class="st1" width="32.1" height="103"/>
		<g>
			<rect x="60.1" y="23" class="st2" width="3.5" height="15.5"/>
			<rect x="65.5" y="23" class="st2" width="3.5" height="15.5"/>
			<rect x="70.8" y="23" class="st2" width="3.5" height="15.5"/>
			<rect x="76.2" y="23" class="st2" width="3.5" height="15.5"/>
			<rect x="81.5" y="23" class="st2" width="3.5" height="15.5"/>
		</g>
		<g>
			<rect x="60.1" y="40.1" class="st2" width="3.5" height="15.5"/>
			<rect x="65.5" y="40.1" class="st2" width="3.5" height="15.5"/>
			<rect x="70.8" y="40.1" class="st2" width="3.5" height="15.5"/>
			<rect x="76.2" y="40.1" class="st2" width="3.5" height="15.5"/>
			<rect x="81.5" y="40.1" class="st2" width="3.5" height="15.5"/>
		</g>
		<g>
			<rect x="60.1" y="57.2" class="st2" width="3.5" height="15.5"/>
			<rect x="65.5" y="57.2" class="st2" width="3.5" height="15.5"/>
			<rect x="70.8" y="57.2" class="st2" width="3.5" height="15.5"/>
			<rect x="76.2" y="57.2" class="st2" width="3.5" height="15.5"/>
			<rect x="81.5" y="57.2" class="st2" width="3.5" height="15.5"/>
		</g>
		<g>
			<rect x="60.1" y="74.3" class="st2" width="3.5" height="15.5"/>
			<rect x="65.5" y="74.3" class="st2" width="3.5" height="15.5"/>
			<rect x="70.8" y="74.3" class="st2" width="3.5" height="15.5"/>
			<rect x="76.2" y="74.3" class="st2" width="3.5" height="15.5"/>
			<rect x="81.5" y="74.3" class="st2" width="3.5" height="15.5"/>
		</g>
		<g>
			<rect x="60.1" y="91.4" class="st2" width="3.5" height="15.5"/>
			<rect x="65.5" y="91.4" class="st2" width="3.5" height="15.5"/>
			<rect x="70.8" y="91.4" class="st2" width="3.5" height="15.5"/>
			<rect x="76.2" y="91.4" class="st2" width="3.5" height="15.5"/>
			<rect x="81.5" y="91.4" class="st2" width="3.5" height="15.5"/>
		</g>
		<g>
			<rect x="60.1" y="108.5" class="st2" width="3.5" height="12.2"/>
			<rect x="65.5" y="108.5" class="st2" width="3.5" height="12.2"/>
			<rect x="70.8" y="108.5" class="st2" width="3.5" height="12.2"/>
			<rect x="76.2" y="108.5" class="st2" width="3.5" height="12.2"/>
			<rect x="81.5" y="108.5" class="st2" width="3.5" height="12.2"/>
		</g>
	</g>
	<g>
		<rect x="71.9" y="23.4" class="st3" width="32.1" height="94.5"/>
		<g>
			<rect x="75.5" y="28.2" class="st2" width="3.5" height="14.2"/>
			<rect x="80.9" y="28.2" class="st2" width="3.5" height="14.2"/>
			<rect x="86.2" y="28.2" class="st2" width="3.5" height="14.2"/>
			<rect x="91.6" y="28.2" class="st2" width="3.5" height="14.2"/>
			<rect x="96.9" y="28.2" class="st2" width="3.5" height="14.2"/>
		</g>
		<g>
			<rect x="75.5" y="43.9" class="st2" width="3.5" height="14.2"/>
			<rect x="80.9" y="43.9" class="st2" width="3.5" height="14.2"/>
			<rect x="86.2" y="43.9" class="st2" width="3.5" height="14.2"/>
			<rect x="91.6" y="43.9" class="st2" width="3.5" height="14.2"/>
			<rect x="96.9" y="43.9" class="st2" width="3.5" height="14.2"/>
		</g>
		<g>
			<rect x="75.5" y="59.6" class="st2" width="3.5" height="14.2"/>
			<rect x="80.9" y="59.6" class="st2" width="3.5" height="14.2"/>
			<rect x="86.2" y="59.6" class="st2" width="3.5" height="14.2"/>
			<rect x="91.6" y="59.6" class="st2" width="3.5" height="14.2"/>
			<rect x="96.9" y="59.6" class="st2" width="3.5" height="14.2"/>
		</g>
		<g>
			<rect x="75.5" y="75.3" class="st2" width="3.5" height="14.2"/>
			<rect x="80.9" y="75.3" class="st2" width="3.5" height="14.2"/>
			<rect x="86.2" y="75.3" class="st2" width="3.5" height="14.2"/>
			<rect x="91.6" y="75.3" class="st2" width="3.5" height="14.2"/>
			<rect x="96.9" y="75.3" class="st2" width="3.5" height="14.2"/>
		</g>
		<g>
			<rect x="75.5" y="91" class="st2" width="3.5" height="14.2"/>
			<rect x="80.9" y="91" class="st2" width="3.5" height="14.2"/>
			<rect x="86.2" y="91" class="st2" width="3.5" height="14.2"/>
			<rect x="91.6" y="91" class="st2" width="3.5" height="14.2"/>
			<rect x="96.9" y="91" class="st2" width="3.5" height="14.2"/>
		</g>
		<g>
			<rect x="75.5" y="106.6" class="st2" width="3.5" height="11.2"/>
			<rect x="80.9" y="106.6" class="st2" width="3.5" height="11.2"/>
			<rect x="86.2" y="106.6" class="st2" width="3.5" height="11.2"/>
			<rect x="91.6" y="106.6" class="st2" width="3.5" height="11.2"/>
			<rect x="96.9" y="106.6" class="st2" width="3.5" height="11.2"/>
		</g>
	</g>
	<g>
		<rect x="96.1" y="36.2" class="st4" width="32.1" height="94.5"/>
		<g>
			<rect x="99.7" y="41.1" class="st2" width="3.5" height="14.2"/>
			<rect x="105" y="41.1" class="st2" width="3.5" height="14.2"/>
			<rect x="110.4" y="41.1" class="st2" width="3.5" height="14.2"/>
			<rect x="115.7" y="41.1" class="st2" width="3.5" height="14.2"/>
			<rect x="121.1" y="41.1" class="st2" width="3.5" height="14.2"/>
		</g>
		<g>
			<rect x="99.7" y="56.8" class="st2" width="3.5" height="14.2"/>
			<rect x="105" y="56.8" class="st2" width="3.5" height="14.2"/>
			<rect x="110.4" y="56.8" class="st2" width="3.5" height="14.2"/>
			<rect x="115.7" y="56.8" class="st2" width="3.5" height="14.2"/>
			<rect x="121.1" y="56.8" class="st2" width="3.5" height="14.2"/>
		</g>
		<g>
			<rect x="99.7" y="72.5" class="st2" width="3.5" height="14.2"/>
			<rect x="105" y="72.5" class="st2" width="3.5" height="14.2"/>
			<rect x="110.4" y="72.5" class="st2" width="3.5" height="14.2"/>
			<rect x="115.7" y="72.5" class="st2" width="3.5" height="14.2"/>
			<rect x="121.1" y="72.5" class="st2" width="3.5" height="14.2"/>
		</g>
		<g>
			<rect x="99.7" y="88.1" class="st2" width="3.5" height="14.2"/>
			<rect x="105" y="88.1" class="st2" width="3.5" height="14.2"/>
			<rect x="110.4" y="88.1" class="st2" width="3.5" height="14.2"/>
			<rect x="115.7" y="88.1" class="st2" width="3.5" height="14.2"/>
			<rect x="121.1" y="88.1" class="st2" width="3.5" height="14.2"/>
		</g>
		<g>
			<rect x="99.7" y="103.8" class="st2" width="3.5" height="14.2"/>
			<rect x="105" y="103.8" class="st2" width="3.5" height="14.2"/>
			<rect x="110.4" y="103.8" class="st2" width="3.5" height="14.2"/>
			<rect x="115.7" y="103.8" class="st2" width="3.5" height="14.2"/>
			<rect x="121.1" y="103.8" class="st2" width="3.5" height="14.2"/>
		</g>
		<g>
			<rect x="99.7" y="119.5" class="st2" width="3.5" height="11.2"/>
			<rect x="105" y="119.5" class="st2" width="3.5" height="11.2"/>
			<rect x="110.4" y="119.5" class="st2" width="3.5" height="11.2"/>
			<rect x="115.7" y="119.5" class="st2" width="3.5" height="11.2"/>
			<rect x="121.1" y="119.5" class="st2" width="3.5" height="11.2"/>
		</g>
	</g>
	<g>
		<rect x="168.9" y="36.2" class="st4" width="32.1" height="94.5"/>
		<g>
			<rect x="172.6" y="41.1" class="st2" width="3.5" height="14.2"/>
			<rect x="177.9" y="41.1" class="st2" width="3.5" height="14.2"/>
			<rect x="183.2" y="41.1" class="st2" width="3.5" height="14.2"/>
			<rect x="188.6" y="41.1" class="st2" width="3.5" height="14.2"/>
			<rect x="193.9" y="41.1" class="st2" width="3.5" height="14.2"/>
		</g>
		<g>
			<rect x="172.6" y="56.8" class="st2" width="3.5" height="14.2"/>
			<rect x="177.9" y="56.8" class="st2" width="3.5" height="14.2"/>
			<rect x="183.2" y="56.8" class="st2" width="3.5" height="14.2"/>
			<rect x="188.6" y="56.8" class="st2" width="3.5" height="14.2"/>
			<rect x="193.9" y="56.8" class="st2" width="3.5" height="14.2"/>
		</g>
		<g>
			<rect x="172.6" y="72.5" class="st2" width="3.5" height="14.2"/>
			<rect x="177.9" y="72.5" class="st2" width="3.5" height="14.2"/>
			<rect x="183.2" y="72.5" class="st2" width="3.5" height="14.2"/>
			<rect x="188.6" y="72.5" class="st2" width="3.5" height="14.2"/>
			<rect x="193.9" y="72.5" class="st2" width="3.5" height="14.2"/>
		</g>
		<g>
			<rect x="172.6" y="88.1" class="st2" width="3.5" height="14.2"/>
			<rect x="177.9" y="88.1" class="st2" width="3.5" height="14.2"/>
			<rect x="183.2" y="88.1" class="st2" width="3.5" height="14.2"/>
			<rect x="188.6" y="88.1" class="st2" width="3.5" height="14.2"/>
			<rect x="193.9" y="88.1" class="st2" width="3.5" height="14.2"/>
		</g>
		<g>
			<rect x="172.6" y="103.8" class="st2" width="3.5" height="14.2"/>
			<rect x="177.9" y="103.8" class="st2" width="3.5" height="14.2"/>
			<rect x="183.2" y="103.8" class="st2" width="3.5" height="14.2"/>
			<rect x="188.6" y="103.8" class="st2" width="3.5" height="14.2"/>
			<rect x="193.9" y="103.8" class="st2" width="3.5" height="14.2"/>
		</g>
		<g>
			<rect x="172.6" y="119.5" class="st2" width="3.5" height="11.2"/>
			<rect x="177.9" y="119.5" class="st2" width="3.5" height="11.2"/>
			<rect x="183.2" y="119.5" class="st2" width="3.5" height="11.2"/>
			<rect x="188.6" y="119.5" class="st2" width="3.5" height="11.2"/>
			<rect x="193.9" y="119.5" class="st2" width="3.5" height="11.2"/>
		</g>
	</g>
	<g>
		<rect x="188.2" y="22" class="st3" width="32.1" height="103"/>
		<g>
			<rect x="191.8" y="27.3" class="st2" width="3.5" height="15.5"/>
			<rect x="197.1" y="27.3" class="st2" width="3.5" height="15.5"/>
			<rect x="202.5" y="27.3" class="st2" width="3.5" height="15.5"/>
			<rect x="207.8" y="27.3" class="st2" width="3.5" height="15.5"/>
			<rect x="213.2" y="27.3" class="st2" width="3.5" height="15.5"/>
		</g>
		<g>
			<rect x="191.8" y="44.4" class="st2" width="3.5" height="15.5"/>
			<rect x="197.1" y="44.4" class="st2" width="3.5" height="15.5"/>
			<rect x="202.5" y="44.4" class="st2" width="3.5" height="15.5"/>
			<rect x="207.8" y="44.4" class="st2" width="3.5" height="15.5"/>
			<rect x="213.2" y="44.4" class="st2" width="3.5" height="15.5"/>
		</g>
		<g>
			<rect x="191.8" y="61.5" class="st2" width="3.5" height="15.5"/>
			<rect x="197.1" y="61.5" class="st2" width="3.5" height="15.5"/>
			<rect x="202.5" y="61.5" class="st2" width="3.5" height="15.5"/>
			<rect x="207.8" y="61.5" class="st2" width="3.5" height="15.5"/>
			<rect x="213.2" y="61.5" class="st2" width="3.5" height="15.5"/>
		</g>
		<g>
			<rect x="191.8" y="78.6" class="st2" width="3.5" height="15.5"/>
			<rect x="197.1" y="78.6" class="st2" width="3.5" height="15.5"/>
			<rect x="202.5" y="78.6" class="st2" width="3.5" height="15.5"/>
			<rect x="207.8" y="78.6" class="st2" width="3.5" height="15.5"/>
			<rect x="213.2" y="78.6" class="st2" width="3.5" height="15.5"/>
		</g>
		<g>
			<rect x="191.8" y="95.7" class="st2" width="3.5" height="15.5"/>
			<rect x="197.1" y="95.7" class="st2" width="3.5" height="15.5"/>
			<rect x="202.5" y="95.7" class="st2" width="3.5" height="15.5"/>
			<rect x="207.8" y="95.7" class="st2" width="3.5" height="15.5"/>
			<rect x="213.2" y="95.7" class="st2" width="3.5" height="15.5"/>
		</g>
		<g>
			<rect x="191.8" y="112.9" class="st2" width="3.5" height="12.2"/>
			<rect x="197.1" y="112.9" class="st2" width="3.5" height="12.2"/>
			<rect x="202.5" y="112.9" class="st2" width="3.5" height="12.2"/>
			<rect x="207.8" y="112.9" class="st2" width="3.5" height="12.2"/>
			<rect x="213.2" y="112.9" class="st2" width="3.5" height="12.2"/>
		</g>
	</g>
	<g>
		<rect x="124.8" y="30.2" class="st3" width="32.1" height="94.5"/>
		<g>
			<rect x="128.4" y="35.1" class="st2" width="3.5" height="14.2"/>
			<rect x="133.8" y="35.1" class="st2" width="3.5" height="14.2"/>
			<rect x="139.1" y="35.1" class="st2" width="3.5" height="14.2"/>
			<rect x="144.5" y="35.1" class="st2" width="3.5" height="14.2"/>
			<rect x="149.8" y="35.1" class="st2" width="3.5" height="14.2"/>
		</g>
		<g>
			<rect x="128.4" y="50.7" class="st2" width="3.5" height="14.2"/>
			<rect x="133.8" y="50.7" class="st2" width="3.5" height="14.2"/>
			<rect x="139.1" y="50.7" class="st2" width="3.5" height="14.2"/>
			<rect x="144.5" y="50.7" class="st2" width="3.5" height="14.2"/>
			<rect x="149.8" y="50.7" class="st2" width="3.5" height="14.2"/>
		</g>
		<g>
			<rect x="128.4" y="66.4" class="st2" width="3.5" height="14.2"/>
			<rect x="133.8" y="66.4" class="st2" width="3.5" height="14.2"/>
			<rect x="139.1" y="66.4" class="st2" width="3.5" height="14.2"/>
			<rect x="144.5" y="66.4" class="st2" width="3.5" height="14.2"/>
			<rect x="149.8" y="66.4" class="st2" width="3.5" height="14.2"/>
		</g>
		<g>
			<rect x="128.4" y="82.1" class="st2" width="3.5" height="14.2"/>
			<rect x="133.8" y="82.1" class="st2" width="3.5" height="14.2"/>
			<rect x="139.1" y="82.1" class="st2" width="3.5" height="14.2"/>
			<rect x="144.5" y="82.1" class="st2" width="3.5" height="14.2"/>
			<rect x="149.8" y="82.1" class="st2" width="3.5" height="14.2"/>
		</g>
		<g>
			<rect x="128.4" y="97.8" class="st2" width="3.5" height="14.2"/>
			<rect x="133.8" y="97.8" class="st2" width="3.5" height="14.2"/>
			<rect x="139.1" y="97.8" class="st2" width="3.5" height="14.2"/>
			<rect x="144.5" y="97.8" class="st2" width="3.5" height="14.2"/>
			<rect x="149.8" y="97.8" class="st2" width="3.5" height="14.2"/>
		</g>
		<g>
			<rect x="128.4" y="113.5" class="st2" width="3.5" height="11.2"/>
			<rect x="133.8" y="113.5" class="st2" width="3.5" height="11.2"/>
			<rect x="139.1" y="113.5" class="st2" width="3.5" height="11.2"/>
			<rect x="144.5" y="113.5" class="st2" width="3.5" height="11.2"/>
			<rect x="149.8" y="113.5" class="st2" width="3.5" height="11.2"/>
		</g>
	</g>
	<g>
		<rect x="23" y="33.1" class="st3" width="32.1" height="85.8"/>
		<g>
			<rect x="26.6" y="37.5" class="st2" width="3.5" height="12.9"/>
			<rect x="32" y="37.5" class="st2" width="3.5" height="12.9"/>
			<rect x="37.3" y="37.5" class="st2" width="3.5" height="12.9"/>
			<rect x="42.7" y="37.5" class="st2" width="3.5" height="12.9"/>
			<rect x="48" y="37.5" class="st2" width="3.5" height="12.9"/>
		</g>
		<g>
			<rect x="26.6" y="51.7" class="st2" width="3.5" height="12.9"/>
			<rect x="32" y="51.7" class="st2" width="3.5" height="12.9"/>
			<rect x="37.3" y="51.7" class="st2" width="3.5" height="12.9"/>
			<rect x="42.7" y="51.7" class="st2" width="3.5" height="12.9"/>
			<rect x="48" y="51.7" class="st2" width="3.5" height="12.9"/>
		</g>
		<g>
			<rect x="26.6" y="66" class="st2" width="3.5" height="12.9"/>
			<rect x="32" y="66" class="st2" width="3.5" height="12.9"/>
			<rect x="37.3" y="66" class="st2" width="3.5" height="12.9"/>
			<rect x="42.7" y="66" class="st2" width="3.5" height="12.9"/>
			<rect x="48" y="66" class="st2" width="3.5" height="12.9"/>
		</g>
		<g>
			<rect x="26.6" y="80.2" class="st2" width="3.5" height="12.9"/>
			<rect x="32" y="80.2" class="st2" width="3.5" height="12.9"/>
			<rect x="37.3" y="80.2" class="st2" width="3.5" height="12.9"/>
			<rect x="42.7" y="80.2" class="st2" width="3.5" height="12.9"/>
			<rect x="48" y="80.2" class="st2" width="3.5" height="12.9"/>
		</g>
		<g>
			<rect x="26.6" y="94.4" class="st2" width="3.5" height="12.9"/>
			<rect x="32" y="94.4" class="st2" width="3.5" height="12.9"/>
			<rect x="37.3" y="94.4" class="st2" width="3.5" height="12.9"/>
			<rect x="42.7" y="94.4" class="st2" width="3.5" height="12.9"/>
			<rect x="48" y="94.4" class="st2" width="3.5" height="12.9"/>
		</g>
		<g>
			<rect x="26.6" y="108.7" class="st2" width="3.5" height="10.1"/>
			<rect x="32" y="108.7" class="st2" width="3.5" height="10.1"/>
			<rect x="37.3" y="108.7" class="st2" width="3.5" height="10.1"/>
			<rect x="42.7" y="108.7" class="st2" width="3.5" height="10.1"/>
			<rect x="48" y="108.7" class="st2" width="3.5" height="10.1"/>
		</g>
	</g>
</g>
<path class="st5" d="M225.6,125.9c0.5,4.6-20.2,10.2-31.1,13.1c-7.5,2-28,7.1-69.9,7.1c-44.7,0-67.3-5.7-78.4-9
	c-12.1-3.6-25-7.4-24.7-11c0.7-7.4,57.4-7.5,101.7-7.5C169.5,118.5,224.9,118.5,225.6,125.9z"/>
<g>
	<path class="st6" d="M61.9,118.9c0.5,2.9-0.5,5.9-2.7,7.7c-2.9,2.4-6.4,1.7-6.9,1.6l8.2-9.3C61,118.9,61.4,118.9,61.9,118.9z"/>
	<g>
		<path class="st6" d="M120.4,118.9c0.5,2.9-0.5,5.9-2.7,7.7c-2.9,2.4-6.4,1.7-6.9,1.6l8.2-9.3C119.5,118.9,120,118.9,120.4,118.9z"
			/>
		<circle class="st7" cx="110.5" cy="119.9" r="8.3"/>
		<circle class="st6" cx="110.8" cy="119.9" r="5.5"/>
	</g>
	<circle class="st7" cx="52.3" cy="119.9" r="8.3"/>
	<circle class="st6" cx="52.3" cy="119.9" r="5.5"/>
	<g>
		<path class="st8" d="M102.2,116h36.3V69.1c0-2.5-2-4.5-4.5-4.5h-31.8V116z"/>
		<g>
			<path class="st9" d="M104.6,76.6h31.5v-4.4c0-3-2.4-5.3-5.3-5.3h-20.8c-3,0-5.3,2.4-5.3,5.3V76.6z"/>
			<g>
				<path class="st9" d="M42.9,116h59.2V64.6H47.5c-2.5,0-4.5,2-4.5,4.5V116z"/>
				<path class="st10" d="M50.6,112.7h43.9c3,0,5.3-2.4,5.3-5.3V72.3c0-3-2.4-5.3-5.3-5.3H50.6c-3,0-5.3,2.4-5.3,5.3v35.1
					C45.3,110.3,47.6,112.7,50.6,112.7z"/>
			</g>
		</g>
	</g>
	<path class="st10" d="M104.6,76.6h30.6v4.6c0,1.3-1.1,2.3-2.3,2.3h-28.2V76.6z"/>
	<path class="st11" d="M104.6,112.2h27.9c2,0,3.6-1.6,3.6-3.6v-32h-31.5V112.2z"/>
	
		<rect x="18.7" y="116" transform="matrix(-1 -4.491353e-11 4.491353e-11 -1 139.7589 234.8757)" class="st7" width="102.4" height="2.9"/>
	<g>
		<path class="st12" d="M41.2,81.5V116H17.4v-10.8c0,0,0-1.4,2.7-1.4s6.2-14,7.5-17.8c1.4-3.9,0.6-4.3,3.1-4.5S41.2,81.5,41.2,81.5z
			"/>
		<path class="st13" d="M38.5,86.8h-6c0,0-0.7-0.1-1.5,2.6s-3.3,7.6-3.1,8.4c0.1,0.8-0.4,6.3,0,6.4c0.4,0.2,7.3,0,8.6,5.5
			c0,0-0.2,0.5,1.1,0.4c1.3-0.1,1.9,0.7,1.9-1.9c0-2.6,0-20.7,0-20.7S39.5,86.8,38.5,86.8z"/>
		<rect x="34.4" y="100.5" class="st14" width="2.9" height="0.5"/>
		<path class="st15" d="M25.6,103.1h0.3v-8.9h-0.3c-1.2,0-2.2,1-2.2,2.2v4.5C23.4,102.2,24.4,103.1,25.6,103.1z"/>
		<path class="st7" d="M25.8,103.1H26c0.7,0,1.3-0.6,1.3-1.3v-6.3c0-0.7-0.6-1.3-1.3-1.3h-0.2V103.1z"/>
		
			<rect x="27.2" y="100.1" transform="matrix(-1 -4.499746e-11 4.499746e-11 -1 55.6809 201.0396)" class="st7" width="1.2" height="0.8"/>
		<path class="st7" d="M37.3,94.9v-5.9c0-0.3-0.3-0.6-0.6-0.6h-3.3c-0.2,0-0.5,0.1-0.5,0.4l-2.3,5.9c-0.1,0.4,0.1,0.8,0.5,0.8l5.5,0
			C37,95.5,37.3,95.2,37.3,94.9z"/>
		<path class="st16" d="M37.3,92.1h-1.6c-0.5,0-0.9,0.3-1.1,0.7l-1.1,2.7h3.3c0.3,0,0.5-0.2,0.5-0.5V92.1z"/>
		
			<rect x="41.2" y="81.5" transform="matrix(-1 -4.462221e-11 4.462221e-11 -1 84.173 197.4672)" class="st17" width="1.7" height="34.5"/>
	</g>
	<g>
		<g>
			<g>
				<g>
					<polygon class="st9" points="61.1,80 57.2,84 81.3,84 72.9,92.4 78.4,92.4 88,82.9 85.1,80.1 					"/>
					<polygon class="st9" points="84,99.6 88,95.6 63.8,95.6 72.2,87.2 66.7,87.2 57.2,96.7 60,99.5 					"/>
				</g>
			</g>
		</g>
	</g>
	<g>
		<g>
			<g>
				<g>
					<polygon class="st9" points="61.1,80 57.2,84 81.3,84 72.9,92.4 78.4,92.4 88,82.9 85.1,80.1 					"/>
					<polygon class="st9" points="84,99.6 88,95.6 63.8,95.6 72.2,87.2 66.7,87.2 57.2,96.7 60,99.5 					"/>
				</g>
			</g>
		</g>
	</g>
	<path class="st7" d="M94.4,118.9c0.5,2.9-0.5,5.9-2.7,7.7c-2.9,2.4-6.4,1.7-6.9,1.6l8.2-9.3C93.5,118.9,93.9,118.9,94.4,118.9z"/>
	<path class="st7" d="M37.2,118.9c0.5,2.9-0.5,5.9-2.7,7.7c-2.9,2.4-6.4,1.7-6.9,1.6l8.2-9.3C36.2,118.9,36.7,118.9,37.2,118.9z"/>
	<g>
		<circle class="st6" cx="27.7" cy="119.9" r="8.3"/>
		<circle class="st18" cx="27.7" cy="119.9" r="5.5"/>
		<circle class="st19" cx="27.7" cy="119.9" r="2"/>
	</g>
	<g>
		<circle class="st6" cx="84.8" cy="119.9" r="8.3"/>
		<circle class="st18" cx="84.8" cy="119.9" r="5.5"/>
		<circle class="st19" cx="84.8" cy="119.9" r="2"/>
	</g>
	<path class="st20" d="M18,108h0.7c0.6,0,1-0.5,1-1v-0.2c0-0.6-0.5-1-1-1H18c-0.6,0-1,0.5-1,1v0.2C17,107.6,17.5,108,18,108z"/>
	<path class="st21" d="M17.7,108h0.7c0.6,0,1-0.5,1-1v-0.2c0-0.6-0.5-1-1-1h-0.7c-0.6,0-1,0.5-1,1v0.2C16.7,107.6,17.2,108,17.7,108
		z"/>
</g>
<g>
	<g>
		<path class="st41" d="M183,94.6c0,0-0.3,4.4-0.2,4.7c0,0.3-0.4,0.2-1.1,0.3s-5.5,0.7-5.5,0.7s-0.7,0.7-0.4,1.1
			c0,0,4.1,1.2,9.7,0.6c0,0,0.5,0,0.6-0.7c0.1-0.9,0.4-1.8,0.5-2.8c0.2-1,0.2-2.1,0.2-3.1c0-0.2,0-0.5-0.1-0.7
			C186.7,94.7,183.2,95,183,94.6z"/>
		<path class="st30" d="M187.1,91.5c-0.3-0.6-0.7-1.1-1.3-1.3c-0.9-0.2-2.5,0.4-3.7,1.7s-2.3,3-2.4,4.9c-0.1,1.8-0.6,7.6,0,14.1
			c0.6,6.5,1.9,23.6,1.9,23.6s1.4,0.5,1.8,0.3c0.5-0.2,2.7-8,2.4-13.5c0,0,6.2,11.4,6.5,11.8l1.8-0.6c0,0-0.4-9.4-3.6-14.2
			s-2.1-10.5-2.2-11.8c-0.2-1.6,0-3.3-0.1-4.9c0-3,0.1-6.2-0.8-9.1C187.3,92.2,187.2,91.8,187.1,91.5z"/>
		<path class="st31" d="M183.4,99.4c0,0,0.3,2.5,2.1,2.7c1.8,0.2,2.7-0.6,2.7-1.7c0-1,0-5.7-0.5-6.7c-0.5-1-1.9-1.6-3-0.6
			C183.7,94,182.9,97.2,183.4,99.4z"/>
		<path class="st31" d="M181.9,93.3c-0.8,2.3-0.9,2.8-1.5,3.3c-0.3,0.2-0.5,0.3-0.7,0.3c0-0.4,0.1-1,0.3-1.6
			c0.4-1.3,1.1-2.2,1.2-2.4c0.5-0.6,0.9-0.9,1.5-1.5c0,0,0.5-0.4,0.6-0.4c0,0-0.3,0.3-0.4,0.5C182.3,91.9,182.1,92.5,181.9,93.3z"/>
		<path class="st32" d="M182.9,89.1c0,0,0.3,1.7,0.1,2c0,0,1.4-1.1,2.8-0.9c0,0-0.8-1.2-0.8-2L182.9,89.1z"/>
		<path class="st33" d="M183,89.9c0,0,1.6-0.5,1.5-0.9l-1.6,0.3L183,89.9z"/>
		<path class="st34" d="M182,85.2c0,0-0.1,2.7,0,3.4s0,0.7,0.3,0.8s2.5-0.3,3-0.7c0.5-0.3,0.9-1.7-0.3-3
			C183.7,84.4,182.2,84.3,182,85.2z"/>
		<path class="st35" d="M181.3,83.6c0,0.1-0.2,1.3,0.3,1.5c0.5,0.2,3.5,0.3,3.8,1.6c0.3,1.3,0.1,1.4,0.1,1.4s0.2,0.3,0.4-0.6
			c0.2-0.8,0.7-1.6,0.3-2.6c-0.4-1-2.2-1.4-2.9-1.5C182.6,83.5,181.4,83.3,181.3,83.6z"/>
		<path class="st36" d="M185.8,121.3l2.4-11.3c0,0,0,4.2,1.5,6.9l-3,6.2L185.8,121.3z"/>
		<path class="st40" d="M181.7,134.5c0,0-0.1,1.2-2.1,1.4c-2,0.2-1.1,0.9-0.3,0.9s3.9,0,3.9,0s0.4-1.1,0.1-2L181.7,134.5z"/>
		<path class="st40" d="M192.5,133c0,0,0.3,1.8,0,2.3s-1.1,0.5-1.1,0.9c-0.1,0.4,0.6,0.5,1.3,0.3c0.7-0.2,0.8-0.3,1.5-1.5
			c0.7-1.2,1.2-1.1,0.7-1.7c-0.4-0.6-0.7-0.8-0.7-0.8L192.5,133z"/>
	</g>
</g>
<g>
	<g>
		<g>
			<polygon class="st30" points="130.5,77.6 124.6,85 166.8,78.5 154.1,94.4 163.8,92.9 178.1,75 172.5,71.3 			"/>
			<polygon class="st30" points="175.3,102.8 181.3,95.4 139,101.9 151.7,86.1 142,87.6 127.7,105.4 133.3,109.2 			"/>
		</g>
	</g>
</g>
<path class="st32" d="M184.1,96.1c0,0-0.3,4.4-0.2,4.7c0,0.3-0.4,0.2-1.1,0.3c-0.7,0.1-5.5,0.7-5.5,0.7s-0.7,0.7-0.4,1.1
	c0,0,4.1,1.2,9.7,0.6c0,0,0.5,0,0.6-0.7c0.1-0.9,0.4-1.8,0.5-2.8c0.2-1,0.2-2.1,0.2-3.1c0-0.2,0-0.5-0.1-0.7
	C187.8,96.2,184.3,96.4,184.1,96.1z"/>
<path class="st32" d="M176.5,101.1c0,0,0.1,0,0.2,0c0.1,0,0.3,0.1,0.5,0.3c0.3,0.3,0.4,0.4,0.4,0.6c0.1,0.4-0.2,0.8-0.6,0.9
	c-0.3,0.1-0.6,0-1.2-0.3c-0.5-0.2-0.7-0.3-0.8-0.5c-0.2-0.4,0.1-0.9,0.4-1c0.2,0,0.3,0,0.6,0.2c0.5,0.2,0.8,0.5,0.8,0.5
	c0,0-0.1-0.2-0.3-0.3c-0.1-0.1-0.2-0.1-0.2-0.2C176.4,101.2,176.5,101.1,176.5,101.1z"/>
<g>
	<path class="st30" d="M114.4,112.3c0,0,0.8-7.6-0.9-8.4l1.5-1.3l-0.4-1.3c0,0-3.8,0.5-4.2,0s-2.1-4-1.4-4c0.7-0.1,6.4-1.8,8.9,0.7
		c0,0,0.9-0.6-0.5-1c-1.4-0.4-5-0.8-6.7-0.4s-6,1.2-6,1.2v6.6c0,0,0.4,0.2,3.7,0.3c0,0,2.6,0.2,2.9,4.4l0.1,3.2H114.4z"/>
	<path class="st36" d="M113.5,103.9l-5.2,0.8c0,0,1.3,0.1,2.1,1.6l3.8-1.2C114.2,105.1,114.1,104.2,113.5,103.9z"/>
	<polygon class="st30" points="114.5,101.3 116.1,101.2 116.3,101.5 114.7,101.7 	"/>
	<g>
		<path class="st41" d="M119.7,97.9l-1.2,1.8c0,0,1.6,1.1,2.9,1.1c1.4,0.1,8.9,1.7,8.9,1.7l0.5-0.7L119.7,97.9z"/>
	</g>
	<path class="st31" d="M117.8,97.9c0,0-1.3-1.5-4.2-1.4c-2.9,0.1-4.7,0.3-4.9,0.8s-0.4,3,0.5,3.4s0.8,1.4,6.7,0.4
		C116.1,101.2,117.6,98.3,117.8,97.9z"/>
	<g>
		<path class="st32" d="M116.1,97.8l-1.5,2.2c0,0,1.9,1.3,3.6,1.4c1.7,0.1,10.8,2.1,10.8,2.1l0.6-0.8L116.1,97.8z"/>
		<path class="st32" d="M129.6,102.7c0,0,0.5-0.1,1-0.5c0.6-0.4,0.4,0.6,0.1,0.5c-0.2,0-0.1,0.2,1,0c1.1-0.2,1,1,0.6,1.2
			c-0.4,0.2-2.2,0.4-2.8,0s-0.6-0.4-0.6-0.4L129.6,102.7z"/>
	</g>
	<path class="st32" d="M118.1,97.6c0,0,0.9,0.3,1.5,0.2l0.7,1.5h-0.4l-2.3-0.8L118.1,97.6z"/>
	<path class="st33" d="M119.9,99.2c0,0-0.1,0.1-0.4-0.6c-0.2-0.7,0.8-0.3,0.8-0.3l0,0.9H119.9z"/>
	<path class="st34" d="M123.4,96.6c0,0-0.5,2.5-1,2.9c-0.5,0.3-2.5-0.2-2.8-0.6s-0.2-4-0.2-4l4,0.2C123.4,95,123.6,95.6,123.4,96.6z
		"/>
	<path class="st35" d="M124.2,93.9c0,0,0.8,1.8,0,2.2s-2.9,0-3.5,0c-0.6,0-0.5,0.5-0.5,0.9c0,0.5,0.1,0.8-0.5,0.8
		c-0.6-0.1-1.3-0.4-1.2-1.4c0-1,0.1-2.5,1.2-2.7C120.8,93.7,123.7,93.2,124.2,93.9z"/>
</g>
</svg>
