<?xml version="1.0" encoding="utf-8"?>
<!-- Generator: Adobe Illustrator 24.3.0, SVG Export Plug-In . SVG Version: 6.00 Build 0)  -->
<svg version="1.1" id="Слой_1" xmlns="http://www.w3.org/2000/svg" xmlns:xlink="http://www.w3.org/1999/xlink" x="0px" y="0px"
	 viewBox="0 0 240 150" style="enable-background:new 0 0 240 150;" xml:space="preserve">
<style type="text/css">
	.st0{fill:#F8F8FF;}
	.st1{fill:#D9E1E8;}
	.st2{fill:#FBFBFF;}
	.st3{fill:#E2EEFB;}
	.st4{fill:#B1CAE0;}
	.st5{fill:#D6DEEA;}
	.st6{fill:#4B556E;}
	.st7{fill:#3F3550;}
	.st8{fill:#BECEE5;}
	.st9{fill:#AEBDD4;}
	.st10{fill:#DFE5F3;}
	.st11{fill:#575270;}
	.st12{fill:#F68064;}
	.st13{fill:#F48873;}
	.st14{fill:#7D5C6F;}
	.st15{fill:#565372;}
	.st16{fill:#AEBCD6;}
	.st17{fill:#E87660;}
	.st18{fill:#DFE5F5;}
	.st19{fill:#8F9BA9;}
	.st20{fill:#9FA9B7;}
	.st21{fill:#B4BFD3;}
	.st22{fill:#EDC490;}
	.st23{fill:#C38975;}
	.st24{fill:none;stroke:#CEA272;stroke-miterlimit:10;}
	.st25{fill:none;stroke:#CCA275;stroke-width:0.25;stroke-miterlimit:10;}
	.st26{fill:none;stroke:#8E6846;stroke-width:0.25;stroke-miterlimit:10;}
	.st27{fill:#C66320;}
	.st28{fill:#F59D43;}
	.st29{fill:#E37C41;}
	.st30{fill:#EE731B;}
	.st31{fill:#FFFFFF;}
	.st32{fill:#FFB28C;}
	.st33{fill:#FA975E;}
	.st34{fill:#FEB082;}
	.st35{fill:#314462;}
	.st36{fill:#BC5F20;}
	.st37{fill:#DEDFE0;}
	.st38{fill:#FAA048;}
	.st39{fill:#E47B42;}
	.st40{fill:#2F435E;}
	.st41{fill:#E2926F;}
	.st42{fill:#1D4259;}
	.st43{font-family:'SFProDisplay-Heavy';}
	.st44{font-size:3.587px;}
	.st45{fill:#285B75;}
	.st46{font-family:'SFProDisplay-Bold';}
	.st47{font-size:3px;}
	.st48{fill:none;stroke:#1D4259;stroke-width:0.5;stroke-linecap:round;stroke-miterlimit:10;}
	.st49{fill:#D6E0F0;}
	.st50{fill:#FF3636;}
	.st51{fill:#F09976;}
</style>
<path class="st0" d="M111,127.3h109.9c20.6-17.7,16.2-52.8,15.4-59.5c-0.7-5.9-5.6-48.9-33.7-57.7c-21.4-6.8-48.8,10.2-73.1,10.9
	C105.3,21.6,87.3,11.4,68,5.2C48.8-1,17.1,8.6,7.3,43c-9.8,34.4,16,84.3,16,84.3C57.3,124.9,86.8,125.6,111,127.3z"/>
<g>
	<g>
		<rect x="145" y="19.1" class="st1" width="32.1" height="103"/>
		<g>
			<rect x="148.6" y="24.4" class="st2" width="3.5" height="15.5"/>
			<rect x="154" y="24.4" class="st2" width="3.5" height="15.5"/>
			<rect x="159.3" y="24.4" class="st2" width="3.5" height="15.5"/>
			<rect x="164.7" y="24.4" class="st2" width="3.5" height="15.5"/>
			<rect x="170" y="24.4" class="st2" width="3.5" height="15.5"/>
		</g>
		<g>
			<rect x="148.6" y="41.5" class="st2" width="3.5" height="15.5"/>
			<rect x="154" y="41.5" class="st2" width="3.5" height="15.5"/>
			<rect x="159.3" y="41.5" class="st2" width="3.5" height="15.5"/>
			<rect x="164.7" y="41.5" class="st2" width="3.5" height="15.5"/>
			<rect x="170" y="41.5" class="st2" width="3.5" height="15.5"/>
		</g>
		<g>
			<rect x="148.6" y="58.6" class="st2" width="3.5" height="15.5"/>
			<rect x="154" y="58.6" class="st2" width="3.5" height="15.5"/>
			<rect x="159.3" y="58.6" class="st2" width="3.5" height="15.5"/>
			<rect x="164.7" y="58.6" class="st2" width="3.5" height="15.5"/>
			<rect x="170" y="58.6" class="st2" width="3.5" height="15.5"/>
		</g>
		<g>
			<rect x="148.6" y="75.7" class="st2" width="3.5" height="15.5"/>
			<rect x="154" y="75.7" class="st2" width="3.5" height="15.5"/>
			<rect x="159.3" y="75.7" class="st2" width="3.5" height="15.5"/>
			<rect x="164.7" y="75.7" class="st2" width="3.5" height="15.5"/>
			<rect x="170" y="75.7" class="st2" width="3.5" height="15.5"/>
		</g>
		<g>
			<rect x="148.6" y="92.8" class="st2" width="3.5" height="15.5"/>
			<rect x="154" y="92.8" class="st2" width="3.5" height="15.5"/>
			<rect x="159.3" y="92.8" class="st2" width="3.5" height="15.5"/>
			<rect x="164.7" y="92.8" class="st2" width="3.5" height="15.5"/>
			<rect x="170" y="92.8" class="st2" width="3.5" height="15.5"/>
		</g>
		<g>
			<rect x="148.6" y="109.9" class="st2" width="3.5" height="12.2"/>
			<rect x="154" y="109.9" class="st2" width="3.5" height="12.2"/>
			<rect x="159.3" y="109.9" class="st2" width="3.5" height="12.2"/>
			<rect x="164.7" y="109.9" class="st2" width="3.5" height="12.2"/>
			<rect x="170" y="109.9" class="st2" width="3.5" height="12.2"/>
		</g>
	</g>
	<g>
		<rect x="56.5" y="17.7" class="st1" width="32.1" height="103"/>
		<g>
			<rect x="60.1" y="23" class="st2" width="3.5" height="15.5"/>
			<rect x="65.5" y="23" class="st2" width="3.5" height="15.5"/>
			<rect x="70.8" y="23" class="st2" width="3.5" height="15.5"/>
			<rect x="76.2" y="23" class="st2" width="3.5" height="15.5"/>
			<rect x="81.5" y="23" class="st2" width="3.5" height="15.5"/>
		</g>
		<g>
			<rect x="60.1" y="40.1" class="st2" width="3.5" height="15.5"/>
			<rect x="65.5" y="40.1" class="st2" width="3.5" height="15.5"/>
			<rect x="70.8" y="40.1" class="st2" width="3.5" height="15.5"/>
			<rect x="76.2" y="40.1" class="st2" width="3.5" height="15.5"/>
			<rect x="81.5" y="40.1" class="st2" width="3.5" height="15.5"/>
		</g>
		<g>
			<rect x="60.1" y="57.2" class="st2" width="3.5" height="15.5"/>
			<rect x="65.5" y="57.2" class="st2" width="3.5" height="15.5"/>
			<rect x="70.8" y="57.2" class="st2" width="3.5" height="15.5"/>
			<rect x="76.2" y="57.2" class="st2" width="3.5" height="15.5"/>
			<rect x="81.5" y="57.2" class="st2" width="3.5" height="15.5"/>
		</g>
		<g>
			<rect x="60.1" y="74.3" class="st2" width="3.5" height="15.5"/>
			<rect x="65.5" y="74.3" class="st2" width="3.5" height="15.5"/>
			<rect x="70.8" y="74.3" class="st2" width="3.5" height="15.5"/>
			<rect x="76.2" y="74.3" class="st2" width="3.5" height="15.5"/>
			<rect x="81.5" y="74.3" class="st2" width="3.5" height="15.5"/>
		</g>
		<g>
			<rect x="60.1" y="91.4" class="st2" width="3.5" height="15.5"/>
			<rect x="65.5" y="91.4" class="st2" width="3.5" height="15.5"/>
			<rect x="70.8" y="91.4" class="st2" width="3.5" height="15.5"/>
			<rect x="76.2" y="91.4" class="st2" width="3.5" height="15.5"/>
			<rect x="81.5" y="91.4" class="st2" width="3.5" height="15.5"/>
		</g>
		<g>
			<rect x="60.1" y="108.5" class="st2" width="3.5" height="12.2"/>
			<rect x="65.5" y="108.5" class="st2" width="3.5" height="12.2"/>
			<rect x="70.8" y="108.5" class="st2" width="3.5" height="12.2"/>
			<rect x="76.2" y="108.5" class="st2" width="3.5" height="12.2"/>
			<rect x="81.5" y="108.5" class="st2" width="3.5" height="12.2"/>
		</g>
	</g>
	<g>
		<rect x="71.9" y="23.4" class="st3" width="32.1" height="94.5"/>
		<g>
			<rect x="75.5" y="28.2" class="st2" width="3.5" height="14.2"/>
			<rect x="80.9" y="28.2" class="st2" width="3.5" height="14.2"/>
			<rect x="86.2" y="28.2" class="st2" width="3.5" height="14.2"/>
			<rect x="91.6" y="28.2" class="st2" width="3.5" height="14.2"/>
			<rect x="96.9" y="28.2" class="st2" width="3.5" height="14.2"/>
		</g>
		<g>
			<rect x="75.5" y="43.9" class="st2" width="3.5" height="14.2"/>
			<rect x="80.9" y="43.9" class="st2" width="3.5" height="14.2"/>
			<rect x="86.2" y="43.9" class="st2" width="3.5" height="14.2"/>
			<rect x="91.6" y="43.9" class="st2" width="3.5" height="14.2"/>
			<rect x="96.9" y="43.9" class="st2" width="3.5" height="14.2"/>
		</g>
		<g>
			<rect x="75.5" y="59.6" class="st2" width="3.5" height="14.2"/>
			<rect x="80.9" y="59.6" class="st2" width="3.5" height="14.2"/>
			<rect x="86.2" y="59.6" class="st2" width="3.5" height="14.2"/>
			<rect x="91.6" y="59.6" class="st2" width="3.5" height="14.2"/>
			<rect x="96.9" y="59.6" class="st2" width="3.5" height="14.2"/>
		</g>
		<g>
			<rect x="75.5" y="75.3" class="st2" width="3.5" height="14.2"/>
			<rect x="80.9" y="75.3" class="st2" width="3.5" height="14.2"/>
			<rect x="86.2" y="75.3" class="st2" width="3.5" height="14.2"/>
			<rect x="91.6" y="75.3" class="st2" width="3.5" height="14.2"/>
			<rect x="96.9" y="75.3" class="st2" width="3.5" height="14.2"/>
		</g>
		<g>
			<rect x="75.5" y="91" class="st2" width="3.5" height="14.2"/>
			<rect x="80.9" y="91" class="st2" width="3.5" height="14.2"/>
			<rect x="86.2" y="91" class="st2" width="3.5" height="14.2"/>
			<rect x="91.6" y="91" class="st2" width="3.5" height="14.2"/>
			<rect x="96.9" y="91" class="st2" width="3.5" height="14.2"/>
		</g>
		<g>
			<rect x="75.5" y="106.6" class="st2" width="3.5" height="11.2"/>
			<rect x="80.9" y="106.6" class="st2" width="3.5" height="11.2"/>
			<rect x="86.2" y="106.6" class="st2" width="3.5" height="11.2"/>
			<rect x="91.6" y="106.6" class="st2" width="3.5" height="11.2"/>
			<rect x="96.9" y="106.6" class="st2" width="3.5" height="11.2"/>
		</g>
	</g>
	<g>
		<rect x="96.1" y="36.2" class="st4" width="32.1" height="94.5"/>
		<g>
			<rect x="99.7" y="41.1" class="st2" width="3.5" height="14.2"/>
			<rect x="105" y="41.1" class="st2" width="3.5" height="14.2"/>
			<rect x="110.4" y="41.1" class="st2" width="3.5" height="14.2"/>
			<rect x="115.7" y="41.1" class="st2" width="3.5" height="14.2"/>
			<rect x="121.1" y="41.1" class="st2" width="3.5" height="14.2"/>
		</g>
		<g>
			<rect x="99.7" y="56.8" class="st2" width="3.5" height="14.2"/>
			<rect x="105" y="56.8" class="st2" width="3.5" height="14.2"/>
			<rect x="110.4" y="56.8" class="st2" width="3.5" height="14.2"/>
			<rect x="115.7" y="56.8" class="st2" width="3.5" height="14.2"/>
			<rect x="121.1" y="56.8" class="st2" width="3.5" height="14.2"/>
		</g>
		<g>
			<rect x="99.7" y="72.5" class="st2" width="3.5" height="14.2"/>
			<rect x="105" y="72.5" class="st2" width="3.5" height="14.2"/>
			<rect x="110.4" y="72.5" class="st2" width="3.5" height="14.2"/>
			<rect x="115.7" y="72.5" class="st2" width="3.5" height="14.2"/>
			<rect x="121.1" y="72.5" class="st2" width="3.5" height="14.2"/>
		</g>
		<g>
			<rect x="99.7" y="88.1" class="st2" width="3.5" height="14.2"/>
			<rect x="105" y="88.1" class="st2" width="3.5" height="14.2"/>
			<rect x="110.4" y="88.1" class="st2" width="3.5" height="14.2"/>
			<rect x="115.7" y="88.1" class="st2" width="3.5" height="14.2"/>
			<rect x="121.1" y="88.1" class="st2" width="3.5" height="14.2"/>
		</g>
		<g>
			<rect x="99.7" y="103.8" class="st2" width="3.5" height="14.2"/>
			<rect x="105" y="103.8" class="st2" width="3.5" height="14.2"/>
			<rect x="110.4" y="103.8" class="st2" width="3.5" height="14.2"/>
			<rect x="115.7" y="103.8" class="st2" width="3.5" height="14.2"/>
			<rect x="121.1" y="103.8" class="st2" width="3.5" height="14.2"/>
		</g>
		<g>
			<rect x="99.7" y="119.5" class="st2" width="3.5" height="11.2"/>
			<rect x="105" y="119.5" class="st2" width="3.5" height="11.2"/>
			<rect x="110.4" y="119.5" class="st2" width="3.5" height="11.2"/>
			<rect x="115.7" y="119.5" class="st2" width="3.5" height="11.2"/>
			<rect x="121.1" y="119.5" class="st2" width="3.5" height="11.2"/>
		</g>
	</g>
	<g>
		<rect x="168.9" y="36.2" class="st4" width="32.1" height="94.5"/>
		<g>
			<rect x="172.6" y="41.1" class="st2" width="3.5" height="14.2"/>
			<rect x="177.9" y="41.1" class="st2" width="3.5" height="14.2"/>
			<rect x="183.2" y="41.1" class="st2" width="3.5" height="14.2"/>
			<rect x="188.6" y="41.1" class="st2" width="3.5" height="14.2"/>
			<rect x="193.9" y="41.1" class="st2" width="3.5" height="14.2"/>
		</g>
		<g>
			<rect x="172.6" y="56.8" class="st2" width="3.5" height="14.2"/>
			<rect x="177.9" y="56.8" class="st2" width="3.5" height="14.2"/>
			<rect x="183.2" y="56.8" class="st2" width="3.5" height="14.2"/>
			<rect x="188.6" y="56.8" class="st2" width="3.5" height="14.2"/>
			<rect x="193.9" y="56.8" class="st2" width="3.5" height="14.2"/>
		</g>
		<g>
			<rect x="172.6" y="72.5" class="st2" width="3.5" height="14.2"/>
			<rect x="177.9" y="72.5" class="st2" width="3.5" height="14.2"/>
			<rect x="183.2" y="72.5" class="st2" width="3.5" height="14.2"/>
			<rect x="188.6" y="72.5" class="st2" width="3.5" height="14.2"/>
			<rect x="193.9" y="72.5" class="st2" width="3.5" height="14.2"/>
		</g>
		<g>
			<rect x="172.6" y="88.1" class="st2" width="3.5" height="14.2"/>
			<rect x="177.9" y="88.1" class="st2" width="3.5" height="14.2"/>
			<rect x="183.2" y="88.1" class="st2" width="3.5" height="14.2"/>
			<rect x="188.6" y="88.1" class="st2" width="3.5" height="14.2"/>
			<rect x="193.9" y="88.1" class="st2" width="3.5" height="14.2"/>
		</g>
		<g>
			<rect x="172.6" y="103.8" class="st2" width="3.5" height="14.2"/>
			<rect x="177.9" y="103.8" class="st2" width="3.5" height="14.2"/>
			<rect x="183.2" y="103.8" class="st2" width="3.5" height="14.2"/>
			<rect x="188.6" y="103.8" class="st2" width="3.5" height="14.2"/>
			<rect x="193.9" y="103.8" class="st2" width="3.5" height="14.2"/>
		</g>
		<g>
			<rect x="172.6" y="119.5" class="st2" width="3.5" height="11.2"/>
			<rect x="177.9" y="119.5" class="st2" width="3.5" height="11.2"/>
			<rect x="183.2" y="119.5" class="st2" width="3.5" height="11.2"/>
			<rect x="188.6" y="119.5" class="st2" width="3.5" height="11.2"/>
			<rect x="193.9" y="119.5" class="st2" width="3.5" height="11.2"/>
		</g>
	</g>
	<g>
		<rect x="188.2" y="22" class="st3" width="32.1" height="103"/>
		<g>
			<rect x="191.8" y="27.3" class="st2" width="3.5" height="15.5"/>
			<rect x="197.1" y="27.3" class="st2" width="3.5" height="15.5"/>
			<rect x="202.5" y="27.3" class="st2" width="3.5" height="15.5"/>
			<rect x="207.8" y="27.3" class="st2" width="3.5" height="15.5"/>
			<rect x="213.2" y="27.3" class="st2" width="3.5" height="15.5"/>
		</g>
		<g>
			<rect x="191.8" y="44.4" class="st2" width="3.5" height="15.5"/>
			<rect x="197.1" y="44.4" class="st2" width="3.5" height="15.5"/>
			<rect x="202.5" y="44.4" class="st2" width="3.5" height="15.5"/>
			<rect x="207.8" y="44.4" class="st2" width="3.5" height="15.5"/>
			<rect x="213.2" y="44.4" class="st2" width="3.5" height="15.5"/>
		</g>
		<g>
			<rect x="191.8" y="61.5" class="st2" width="3.5" height="15.5"/>
			<rect x="197.1" y="61.5" class="st2" width="3.5" height="15.5"/>
			<rect x="202.5" y="61.5" class="st2" width="3.5" height="15.5"/>
			<rect x="207.8" y="61.5" class="st2" width="3.5" height="15.5"/>
			<rect x="213.2" y="61.5" class="st2" width="3.5" height="15.5"/>
		</g>
		<g>
			<rect x="191.8" y="78.6" class="st2" width="3.5" height="15.5"/>
			<rect x="197.1" y="78.6" class="st2" width="3.5" height="15.5"/>
			<rect x="202.5" y="78.6" class="st2" width="3.5" height="15.5"/>
			<rect x="207.8" y="78.6" class="st2" width="3.5" height="15.5"/>
			<rect x="213.2" y="78.6" class="st2" width="3.5" height="15.5"/>
		</g>
		<g>
			<rect x="191.8" y="95.7" class="st2" width="3.5" height="15.5"/>
			<rect x="197.1" y="95.7" class="st2" width="3.5" height="15.5"/>
			<rect x="202.5" y="95.7" class="st2" width="3.5" height="15.5"/>
			<rect x="207.8" y="95.7" class="st2" width="3.5" height="15.5"/>
			<rect x="213.2" y="95.7" class="st2" width="3.5" height="15.5"/>
		</g>
		<g>
			<rect x="191.8" y="112.9" class="st2" width="3.5" height="12.2"/>
			<rect x="197.1" y="112.9" class="st2" width="3.5" height="12.2"/>
			<rect x="202.5" y="112.9" class="st2" width="3.5" height="12.2"/>
			<rect x="207.8" y="112.9" class="st2" width="3.5" height="12.2"/>
			<rect x="213.2" y="112.9" class="st2" width="3.5" height="12.2"/>
		</g>
	</g>
	<g>
		<rect x="124.8" y="30.2" class="st3" width="32.1" height="94.5"/>
		<g>
			<rect x="128.4" y="35.1" class="st2" width="3.5" height="14.2"/>
			<rect x="133.8" y="35.1" class="st2" width="3.5" height="14.2"/>
			<rect x="139.1" y="35.1" class="st2" width="3.5" height="14.2"/>
			<rect x="144.5" y="35.1" class="st2" width="3.5" height="14.2"/>
			<rect x="149.8" y="35.1" class="st2" width="3.5" height="14.2"/>
		</g>
		<g>
			<rect x="128.4" y="50.7" class="st2" width="3.5" height="14.2"/>
			<rect x="133.8" y="50.7" class="st2" width="3.5" height="14.2"/>
			<rect x="139.1" y="50.7" class="st2" width="3.5" height="14.2"/>
			<rect x="144.5" y="50.7" class="st2" width="3.5" height="14.2"/>
			<rect x="149.8" y="50.7" class="st2" width="3.5" height="14.2"/>
		</g>
		<g>
			<rect x="128.4" y="66.4" class="st2" width="3.5" height="14.2"/>
			<rect x="133.8" y="66.4" class="st2" width="3.5" height="14.2"/>
			<rect x="139.1" y="66.4" class="st2" width="3.5" height="14.2"/>
			<rect x="144.5" y="66.4" class="st2" width="3.5" height="14.2"/>
			<rect x="149.8" y="66.4" class="st2" width="3.5" height="14.2"/>
		</g>
		<g>
			<rect x="128.4" y="82.1" class="st2" width="3.5" height="14.2"/>
			<rect x="133.8" y="82.1" class="st2" width="3.5" height="14.2"/>
			<rect x="139.1" y="82.1" class="st2" width="3.5" height="14.2"/>
			<rect x="144.5" y="82.1" class="st2" width="3.5" height="14.2"/>
			<rect x="149.8" y="82.1" class="st2" width="3.5" height="14.2"/>
		</g>
		<g>
			<rect x="128.4" y="97.8" class="st2" width="3.5" height="14.2"/>
			<rect x="133.8" y="97.8" class="st2" width="3.5" height="14.2"/>
			<rect x="139.1" y="97.8" class="st2" width="3.5" height="14.2"/>
			<rect x="144.5" y="97.8" class="st2" width="3.5" height="14.2"/>
			<rect x="149.8" y="97.8" class="st2" width="3.5" height="14.2"/>
		</g>
		<g>
			<rect x="128.4" y="113.5" class="st2" width="3.5" height="11.2"/>
			<rect x="133.8" y="113.5" class="st2" width="3.5" height="11.2"/>
			<rect x="139.1" y="113.5" class="st2" width="3.5" height="11.2"/>
			<rect x="144.5" y="113.5" class="st2" width="3.5" height="11.2"/>
			<rect x="149.8" y="113.5" class="st2" width="3.5" height="11.2"/>
		</g>
	</g>
	<g>
		<rect x="26.6" y="37.3" class="st3" width="32.1" height="85.8"/>
		<g>
			<rect x="30.3" y="41.7" class="st2" width="3.5" height="12.9"/>
			<rect x="35.6" y="41.7" class="st2" width="3.5" height="12.9"/>
			<rect x="40.9" y="41.7" class="st2" width="3.5" height="12.9"/>
			<rect x="46.3" y="41.7" class="st2" width="3.5" height="12.9"/>
			<rect x="51.6" y="41.7" class="st2" width="3.5" height="12.9"/>
		</g>
		<g>
			<rect x="30.3" y="56" class="st2" width="3.5" height="12.9"/>
			<rect x="35.6" y="56" class="st2" width="3.5" height="12.9"/>
			<rect x="40.9" y="56" class="st2" width="3.5" height="12.9"/>
			<rect x="46.3" y="56" class="st2" width="3.5" height="12.9"/>
			<rect x="51.6" y="56" class="st2" width="3.5" height="12.9"/>
		</g>
		<g>
			<rect x="30.3" y="70.2" class="st2" width="3.5" height="12.9"/>
			<rect x="35.6" y="70.2" class="st2" width="3.5" height="12.9"/>
			<rect x="40.9" y="70.2" class="st2" width="3.5" height="12.9"/>
			<rect x="46.3" y="70.2" class="st2" width="3.5" height="12.9"/>
			<rect x="51.6" y="70.2" class="st2" width="3.5" height="12.9"/>
		</g>
		<g>
			<rect x="30.3" y="84.5" class="st2" width="3.5" height="12.9"/>
			<rect x="35.6" y="84.5" class="st2" width="3.5" height="12.9"/>
			<rect x="40.9" y="84.5" class="st2" width="3.5" height="12.9"/>
			<rect x="46.3" y="84.5" class="st2" width="3.5" height="12.9"/>
			<rect x="51.6" y="84.5" class="st2" width="3.5" height="12.9"/>
		</g>
		<g>
			<rect x="30.3" y="98.7" class="st2" width="3.5" height="12.9"/>
			<rect x="35.6" y="98.7" class="st2" width="3.5" height="12.9"/>
			<rect x="40.9" y="98.7" class="st2" width="3.5" height="12.9"/>
			<rect x="46.3" y="98.7" class="st2" width="3.5" height="12.9"/>
			<rect x="51.6" y="98.7" class="st2" width="3.5" height="12.9"/>
		</g>
		<g>
			<rect x="30.3" y="112.9" class="st2" width="3.5" height="10.1"/>
			<rect x="35.6" y="112.9" class="st2" width="3.5" height="10.1"/>
			<rect x="40.9" y="112.9" class="st2" width="3.5" height="10.1"/>
			<rect x="46.3" y="112.9" class="st2" width="3.5" height="10.1"/>
			<rect x="51.6" y="112.9" class="st2" width="3.5" height="10.1"/>
		</g>
	</g>
</g>
<path class="st5" d="M225.6,125.9c0.5,4.6-20.2,10.2-31.1,13.1c-7.5,2-28,7.1-69.9,7.1c-44.7,0-67.3-5.7-78.4-9
	c-12.1-3.6-25-7.4-24.7-11c0.7-7.4,57.4-7.5,101.7-7.5C169.5,118.5,224.9,118.5,225.6,125.9z"/>
<g>
	<path class="st6" d="M171.3,115c-0.5,3.1,0.6,6.2,2.9,8.2c3.1,2.6,6.8,1.8,7.3,1.7l-8.7-9.9C172.3,115,171.8,115,171.3,115z"/>
	<g>
		<path class="st6" d="M109.3,115c-0.5,3.1,0.6,6.2,2.9,8.2c3.1,2.6,6.8,1.8,7.3,1.7l-8.7-9.9C110.3,115,109.8,115,109.3,115z"/>
		<circle class="st7" cx="119.9" cy="116.1" r="8.8"/>
		<circle class="st6" cx="119.5" cy="116.1" r="5.8"/>
	</g>
	<circle class="st7" cx="181.5" cy="116.1" r="8.8"/>
	<circle class="st6" cx="181.5" cy="116.1" r="5.8"/>
	<g>
		<path class="st8" d="M128.7,111.9H90.2V62.1c0-2.5,2-4.5,4.5-4.5h33.9V111.9z"/>
		<g>
			<path class="st9" d="M126.1,70.2H92.8v-4.9c0-3,2.4-5.3,5.3-5.3h22.7c3,0,5.3,2.4,5.3,5.3V70.2z"/>
			<g>
				<path class="st9" d="M191.4,111.9h-62.7V57.6h58.2c2.5,0,4.5,2,4.5,4.5V111.9z"/>
				<path class="st10" d="M183.6,108.4h-47.1c-3,0-5.3-2.4-5.3-5.3V65.3c0-3,2.4-5.3,5.3-5.3h47.1c3,0,5.3,2.4,5.3,5.3v37.8
					C189,106,186.6,108.4,183.6,108.4z"/>
			</g>
		</g>
	</g>
	<path class="st10" d="M126.1,70.2H93.7v5c0,1.3,1.1,2.3,2.3,2.3h30V70.2z"/>
	<path class="st11" d="M126.1,108H96.3c-2,0-3.6-1.6-3.6-3.6V70.2h33.4V108z"/>
	<rect x="108.7" y="111.9" class="st7" width="108.4" height="3.1"/>
	<g>
		<path class="st12" d="M193.2,75.4v36.6h25.2v-11.5c0,0,0-1.5-2.8-1.5c-2.8,0.1-6.5-14.8-8-18.9c-1.5-4.1-0.7-4.6-3.3-4.7
			C201.6,75.3,193.2,75.4,193.2,75.4z"/>
		<path class="st13" d="M196.1,81h6.3c0,0,0.7-0.1,1.6,2.7c0.8,2.8,3.4,8.1,3.3,8.9c-0.1,0.8,0.4,6.6,0,6.8c-0.4,0.2-7.7,0-9.1,5.8
			c0,0,0.2,0.5-1.1,0.4c-1.4-0.1-2,0.8-2-2s0-21.9,0-21.9S195.1,81,196.1,81z"/>
		<rect x="197.4" y="95.5" class="st14" width="3" height="0.5"/>
		<path class="st15" d="M210.3,98.3h-0.8v-9.4h0.8c1,0,1.8,0.8,1.8,1.8v5.8C212.1,97.5,211.3,98.3,210.3,98.3z"/>
		<path class="st7" d="M209.5,98.3h-0.5c-0.6,0-1-0.5-1-1V90c0-0.6,0.5-1,1-1h0.5V98.3z"/>
		<rect x="206.7" y="95.1" class="st7" width="1.3" height="0.9"/>
		<path class="st7" d="M197.4,89.6v-6.2c0-0.3,0.3-0.6,0.6-0.6h3.4c0.3,0,0.5,0.2,0.6,0.4l2.4,6.2c0.2,0.4-0.1,0.8-0.6,0.8l-5.8,0
			C197.7,90.2,197.4,89.9,197.4,89.6z"/>
		<path class="st16" d="M197.4,86.7h1.7c0.5,0,1,0.3,1.2,0.8l1.2,2.8h-3.5c-0.3,0-0.5-0.2-0.5-0.5V86.7z"/>
		<rect x="191.4" y="75.4" class="st17" width="1.8" height="36.6"/>
	</g>
	<g>
		<g>
			<g>
				<g>
					<polygon class="st9" points="147.9,73.9 143.7,78 169.3,78 160.4,87 166.2,87 176.4,76.9 173.4,73.9 					"/>
					<polygon class="st9" points="172.1,94.5 176.4,90.4 150.7,90.4 159.7,81.4 153.8,81.4 143.7,91.5 146.7,94.5 					"/>
				</g>
			</g>
		</g>
	</g>
	<g>
		<rect x="109.9" y="84.1" class="st22" width="16.2" height="23.8"/>
		<rect x="122.1" y="84.1" class="st23" width="4" height="23.8"/>
		<line class="st24" x1="116" y1="84.1" x2="116" y2="108"/>
		<line class="st25" x1="109.9" y1="91.7" x2="126.1" y2="91.7"/>
		<polyline class="st25" points="122.1,101.1 126.1,101.1 122.1,101.1 109.9,101.1 		"/>
	</g>
	<line class="st26" x1="122.1" y1="96.8" x2="126.1" y2="96.8"/>
	<line class="st26" x1="122.1" y1="87.3" x2="126.1" y2="87.3"/>
	<g>
		<polygon class="st10" points="102.7,127.7 72.8,127.7 95.1,108 125,108 		"/>
		<polygon class="st9" points="103.7,127.7 102.6,127.7 125,108 126.1,108 		"/>
	</g>
	<path class="st7" d="M136.9,115c-0.5,3.1,0.6,6.2,2.9,8.2c3.1,2.6,6.8,1.8,7.3,1.7l-8.7-9.9C137.9,115,137.4,115,136.9,115z"/>
	<path class="st7" d="M197.5,115c-0.5,3.1,0.6,6.2,2.9,8.2c3.1,2.6,6.8,1.8,7.3,1.7L199,115C198.5,115,198,115,197.5,115z"/>
	<g>
		<circle class="st6" cx="207.5" cy="116.1" r="8.8"/>
		<circle class="st18" cx="207.5" cy="116.1" r="5.8"/>
		<circle class="st19" cx="207.5" cy="116.1" r="2.1"/>
	</g>
	<g>
		<circle class="st6" cx="147.1" cy="116.1" r="8.8"/>
		<circle class="st18" cx="147.1" cy="116.1" r="5.8"/>
		<circle class="st19" cx="147.1" cy="116.1" r="2.1"/>
	</g>
	<path class="st20" d="M218,103.5h-1.3c-0.4,0-0.8-0.4-0.8-0.8v-0.7c0-0.4,0.4-0.8,0.8-0.8h1.3c0.4,0,0.8,0.4,0.8,0.8v0.7
		C218.8,103.1,218.5,103.5,218,103.5z"/>
	<path class="st21" d="M218.4,103.5h-1.3c-0.4,0-0.8-0.4-0.8-0.8v-0.7c0-0.4,0.4-0.8,0.8-0.8h1.3c0.4,0,0.8,0.4,0.8,0.8v0.7
		C219.2,103.1,218.8,103.5,218.4,103.5z"/>
</g>
<g>
	<g>
		<g>
			<rect x="155.2" y="102.1" class="st38" width="9.3" height="9.3"/>
			<polygon class="st39" points="165.4,111.4 164.6,111.4 164.6,102.1 165.8,102.1 			"/>
		</g>
		<g>
			<g>
				<g>
					<polygon class="st27" points="157.7,105.2 157,105.9 161.5,105.7 160,107.3 161,107.3 162.7,105.5 162.1,105 					"/>
					<polygon class="st27" points="162.1,108.5 162.8,107.8 158.3,108 159.8,106.4 158.8,106.4 157.1,108.3 157.7,108.8 					"/>
				</g>
			</g>
		</g>
	</g>
	<g>
		<path class="st30" d="M173.1,95.9c-0.3-0.6-0.7-1.1-1.3-1.3c-0.9-0.2-2.5,0.4-3.7,1.7s-2.3,3-2.4,4.9c-0.1,1.8-0.6,7.6,0,14.1
			c0.6,6.5,1.9,23.6,1.9,23.6s1.4,0.5,1.8,0.3c0.5-0.2,2.7-8,2.4-13.5c0,0,6.2,11.4,6.5,11.8l1.8-0.6c0,0-0.4-9.4-3.6-14.2
			s-2.1-10.5-2.2-11.8c-0.2-1.6,0-3.3-0.1-4.9c0-3,0.1-6.2-0.8-9.1C173.3,96.5,173.2,96.2,173.1,95.9z"/>
		<path class="st31" d="M169.3,103.7c0,0,0.3,2.5,2.1,2.7c1.8,0.2,2.7-0.6,2.7-1.7c0-1,0-5.7-0.5-6.7c-0.5-1-1.9-1.6-3-0.6
			C169.7,98.4,168.9,101.6,169.3,103.7z"/>
		<path class="st32" d="M170.1,100.4c0,0-0.3,4.4-0.2,4.7c0,0.3-0.4,0.2-1.1,0.3c-0.7,0.1-5.5,0.7-5.5,0.7s-0.7,0.7-0.4,1.1
			c0,0,4.1,1.2,9.7,0.6c0,0,0.5,0,0.6-0.7c0.1-0.9,0.4-1.8,0.5-2.8c0.2-1,0.2-2.1,0.2-3.1c0-0.2,0-0.5-0.1-0.7
			C173.8,100.6,170.3,100.8,170.1,100.4z"/>
		<path class="st31" d="M167.8,97.6c-0.8,2.3-0.9,2.8-1.5,3.3c-0.3,0.2-0.5,0.3-0.7,0.3c0-0.4,0.1-1,0.3-1.6
			c0.4-1.3,1.1-2.2,1.2-2.4c0.5-0.6,0.9-0.9,1.5-1.5c0,0,0.5-0.4,0.6-0.4c0,0-0.3,0.3-0.4,0.5C168.3,96.3,168.1,96.8,167.8,97.6z"/>
		<path class="st32" d="M168.9,93.5c0,0,0.3,1.7,0.1,2c0,0,1.4-1.1,2.8-0.9c0,0-0.8-1.2-0.8-2L168.9,93.5z"/>
		<path class="st33" d="M169,94.2c0,0,1.6-0.5,1.5-0.9l-1.6,0.3L169,94.2z"/>
		<path class="st34" d="M168,89.6c0,0-0.1,2.7,0,3.4s0,0.7,0.3,0.8s2.5-0.3,3-0.7c0.5-0.3,0.9-1.7-0.3-3
			C169.7,88.8,168.2,88.7,168,89.6z"/>
		<path class="st35" d="M167.3,88c0,0.1-0.2,1.3,0.3,1.5c0.5,0.2,3.5,0.3,3.8,1.6c0.3,1.3,0.1,1.4,0.1,1.4s0.2,0.3,0.4-0.6
			c0.2-0.8,0.7-1.6,0.3-2.6c-0.4-1-2.2-1.4-2.9-1.5C168.5,87.8,167.4,87.7,167.3,88z"/>
		<path class="st36" d="M171.8,125.7l2.4-11.3c0,0,0,4.2,1.5,6.9l-3,6.2L171.8,125.7z"/>
		<path class="st40" d="M167.7,138.9c0,0-0.1,1.2-2.1,1.4c-2,0.2-1.1,0.9-0.3,0.9c0.8-0.1,3.9,0,3.9,0s0.4-1.1,0.1-2L167.7,138.9z"
			/>
		<path class="st40" d="M178.5,137.4c0,0,0.3,1.8,0,2.3s-1.1,0.5-1.1,0.9c-0.1,0.4,0.6,0.5,1.3,0.3c0.7-0.2,0.8-0.3,1.5-1.5
			c0.7-1.2,1.2-1.1,0.7-1.7c-0.4-0.6-0.7-0.8-0.7-0.8L178.5,137.4z"/>
		<path class="st32" d="M162.5,105.5c0,0,0.1,0,0.2,0c0.1,0,0.3,0.1,0.5,0.3c0.3,0.3,0.4,0.4,0.4,0.6c0.1,0.4-0.2,0.8-0.6,0.9
			c-0.3,0.1-0.6,0-1.2-0.3c-0.5-0.2-0.7-0.3-0.8-0.5c-0.2-0.4,0.1-0.9,0.4-1c0.2,0,0.3,0,0.6,0.2c0.5,0.2,0.8,0.5,0.8,0.5
			c0,0-0.1-0.2-0.3-0.3c-0.1-0.1-0.2-0.1-0.2-0.2C162.4,105.5,162.5,105.5,162.5,105.5z"/>
	</g>
</g>
<g>
	<g>
		<path class="st42" d="M80.6,134.2l-31-5c-3.6-0.6-6.1-4-5.5-7.6L56,48.1c0.6-3.6,4-6.1,7.6-5.5l31,5c3.6,0.6,6.1,4,5.5,7.6
			l-11.8,73.6C87.6,132.3,84.2,134.8,80.6,134.2z"/>
		<path class="st0" d="M79.4,132.4l-28.1-4.5c-3.6-0.6-6.1-4-5.5-7.6l11.3-70.5c0.6-3.6,4-6.1,7.6-5.5l28.1,4.5
			c3.6,0.6,6.1,4,5.5,7.6L87,126.9C86.4,130.5,83,133,79.4,132.4z"/>
		<path class="st42" d="M83.7,50.2l-11.1-1.8c-1.4-0.2-2.4-1.2-2.4-2.4l0-1.3l16.9,2.7l-0.4,1.3C86.3,49.7,85,50.4,83.7,50.2z"/>
		<g>
			<text transform="matrix(0.9873 0.1586 -0.1586 0.9873 60.2059 59.9083)" class="st42 st43 st44">+7 919 699-49-68</text>
		</g>
		<g>
			<text transform="matrix(0.9873 0.1586 -0.1586 0.9873 66.9256 66.142)" class="st45 st46 st47">ГруzZzчики</text>
		</g>
		<line class="st48" x1="67.3" y1="62.5" x2="84.3" y2="65.2"/>
		<g>
			<circle class="st49" cx="61.5" cy="81.4" r="3.6"/>
			<circle class="st49" cx="72.9" cy="83.2" r="3.6"/>
			<circle class="st49" cx="84.3" cy="85" r="3.6"/>
		</g>
		<g>
			<circle class="st49" cx="59.9" cy="91.7" r="3.6"/>
			<circle class="st49" cx="71.3" cy="93.5" r="3.6"/>
			<circle class="st49" cx="82.6" cy="95.4" r="3.6"/>
		</g>
		<g>
			<circle class="st49" cx="58.2" cy="102" r="3.6"/>
			<circle class="st49" cx="69.6" cy="103.8" r="3.6"/>
			<circle class="st50" cx="67.6" cy="116.2" r="3.6"/>
			<circle class="st49" cx="81" cy="105.7" r="3.6"/>
		</g>
	</g>
	<path class="st51" d="M33.1,133.1c0,0,2.8-0.6,3.1-5.4c0.3-4.8-2.3-21.1-0.7-25.3c0,0,7-18.3,9.6-19.1s3.7-1.8,8.2-2.5
		c4.5-0.7,5.8-3.2,7.9-3.4s3.1,1.3,3.2,2.7c0.1,1.4,0.1,6.7-10.3,10.5c0,0-0.4,0-0.8,0.2c-1,0.6-1.1,2.3-1.1,3
		c-0.3,5-2.6,6.3-1.6,9.5c0.4,1.2,0.8,1.3,1.5,2.6c2.3,4,2.6,9.9,0.6,13.9c-2.5,4.9-7.6,5.2-7.2,7c0.4,2.3,8.4,2.6,17.8,4.5
		c0.5,0.1,2.1,0.4,4.3,0.8c1.7,0.3,3.1,0.5,4.2,0.6c-0.1,0.1-0.1,0.2-0.2,0.2c-0.8,1.2-2.6,3-7,3.6c-0.7,1.5-1.4,3-2.1,4.5
		c-4.1-0.8-8.5-1.8-12.9-3C43.8,136.6,38.3,134.9,33.1,133.1z"/>
	<path class="st51" d="M90.7,112.5c1.1-0.6,9.9-5.3,10.1-10.1c0-0.5,0.1-1.7-0.7-2.6c-1.5-1.7-4.6-0.9-4.8-0.9c0,0,6.6-3.6,7.9-8.7
		s-2.4-6.6-2.4-6.6c1.3-1,3.4-3.1,4.3-6.4c0.5-1.6,1.3-4.6-0.4-6.6c-1-1.2-2.5-1.5-3.3-1.6c1.4-0.8,6.2-3.7,7-8.6
		c0.2-1.2,0.6-3.5-0.9-4.8c-1-1-2.5-0.9-3.1-0.9c-1.5,0.1-2.9,0.2-4.4,0.3c-0.6,3.9-1.3,7.9-1.9,11.8c-0.9,5.4-1.7,10.8-2.6,16.2
		c-0.3,0-2.8,0.3-3.9,2.3c-1.2,2.1-0.4,5.3,2.2,7.1L90.7,112.5z"/>
</g>
</svg>
