<svg width="67" height="67" viewBox="0 0 67 67" fill="none" xmlns="http://www.w3.org/2000/svg">
<path d="M55.8635 16.0113L50.7005 12.1253L48.8076 5.94667C48.5347 5.05643 47.7197 4.44283 46.7888 4.42726L40.3275 4.31825L35.1644 0.432121C34.4204 -0.127826 33.4003 -0.145099 32.6381 0.389592L27.3468 4.09906L20.8855 3.99006C19.9558 3.97069 19.1191 4.55995 18.8166 5.44063L16.716 11.5516L11.4247 15.2612C10.6623 15.7957 10.3307 16.7605 10.6036 17.6507L12.4965 23.8294L10.3962 29.9406C10.0935 30.8213 10.3922 31.7965 11.1363 32.3566L16.2994 36.2426L19.1323 43.6276V64.8507C19.1323 65.579 19.5014 66.2579 20.1125 66.6542C20.7238 67.0505 21.4941 67.1101 22.1591 66.8128L33.4999 61.7417L44.8407 66.8128C45.121 66.9381 45.42 67 45.718 67C46.1269 67 46.5338 66.8834 46.8873 66.6542C47.4986 66.2579 47.8675 65.579 47.8675 64.8507V43.5205L50.2837 36.8163L55.575 33.1067C56.3375 32.5722 56.6689 31.6074 56.3961 30.7172L54.5032 24.5385L56.6035 18.4272C56.9063 17.5467 56.6074 16.5715 55.8635 16.0113ZM43.5687 61.5352L34.3773 57.4253C34.0982 57.3005 33.799 57.238 33.4999 57.238C33.2009 57.238 32.9016 57.3005 32.6225 57.4253L23.4309 61.5352V43.9952L26.6722 44.0499L31.8352 47.9359C32.5726 48.4908 33.5952 48.516 34.3616 47.9784L39.6529 44.269L43.5686 44.3351V61.5352H43.5687ZM50.1884 25.1301L51.8285 30.4835L47.2439 33.6975C46.8723 33.958 46.5927 34.3295 46.445 34.7589L44.6253 40.0537L39.0273 39.9592C38.5735 39.9506 38.1287 40.0877 37.7572 40.3484L33.1728 43.5625L28.6993 40.1956C28.3359 39.9221 27.896 39.7715 27.4431 39.7639L21.845 39.6693L20.2051 34.3161C20.0722 33.882 19.8052 33.5013 19.4425 33.2284L14.969 29.8615L16.7889 24.5666C16.9365 24.1373 16.9442 23.6724 16.8114 23.2386L15.1713 17.8852L19.7559 14.6712C20.1275 14.4107 20.4072 14.0391 20.5548 13.6098L22.3745 8.31496L27.9725 8.40957C28.4294 8.41428 28.871 8.28107 29.2427 8.0204L33.8271 4.80623L38.3005 8.17311C38.6631 8.44608 39.1029 8.59709 39.5567 8.60481L45.1548 8.69942L46.7947 14.0526C46.9277 14.4867 47.1946 14.8673 47.5573 15.1403L52.0308 18.5072L50.211 23.802C50.0633 24.2311 50.0556 24.6961 50.1884 25.1301Z" fill="#FF4180"/>
<path d="M33.5 10.8603C26.1533 10.8603 20.1763 16.8372 20.1763 24.184C20.1763 31.5308 26.1531 37.5077 33.5 37.5077C40.8468 37.5077 46.8237 31.5308 46.8237 24.184C46.8238 16.8373 40.8467 10.8603 33.5 10.8603ZM33.5 33.209C28.5237 33.209 24.475 29.1605 24.475 24.184C24.475 19.2076 28.5235 15.159 33.5 15.159C38.4764 15.159 42.525 19.2076 42.525 24.184C42.5251 29.1605 38.4764 33.209 33.5 33.209Z" fill="#FF4180"/>
</svg>
