<svg id="Слой_1" data-name="Слой 1" xmlns="http://www.w3.org/2000/svg" viewBox="0 0 339.94 127.15"><defs><style>.cls-1{fill:#d3d3d3;}.cls-2{fill:#0f222c;}.cls-3{fill:#1a2247;}.cls-4{fill:#282828;}.cls-5{fill:#ffae2c;}.cls-6{fill:#ff4180;}.cls-7{fill:#0f0f0f;}.cls-8{fill:#efefef;}</style></defs><path class="cls-1" d="M80,33.28v80.6H35.17v.1H0V92.65A21,21,0,0,1,17.55,71.92l2.9-.49a6.37,6.37,0,0,0,3.64-2v0L50.36,39.73a19,19,0,0,1,14.11-6.39Z"/><path class="cls-2" d="M72.33,38.93H59.85a4.51,4.51,0,0,0-3.47,1.62L31,70.63a1.17,1.17,0,0,0,1,1.9H72.33A4.54,4.54,0,0,0,76.87,68V43.48A4.55,4.55,0,0,0,72.33,38.93Z"/><path class="cls-3" d="M335.94,0H80V114h256Z"/><path class="cls-4" d="M336,114.05H80v-10.2h255.9c2.24,0,4.06,1.1,4.06,2.5v5.2C339.94,113,338.12,114.05,336,114.05Z"/><path class="cls-5" d="M8.6,88.23H4.28C1.92,88.23,0,87.14,0,85.79V83.06c0-1,1.44-1.83,3.21-1.83H8.6c1.17,0,2.11.54,2.11,1.2V87C10.71,87.69,9.77,88.23,8.6,88.23Z"/><path class="cls-6" d="M178.24,31.76,168,42h62.8l-22,21.83h14.42L248,39.22,240.61,32Z"/><path class="cls-6" d="M237.68,82.22,248,72h-62.8l22-21.84H192.7L168,74.77l7.35,7.31Z"/><circle class="cls-7" cx="23.88" cy="113.98" r="13.17"/><circle class="cls-8" cx="23.88" cy="113.98" r="10.14"/><circle class="cls-7" cx="250.16" cy="113.98" r="13.17"/><circle class="cls-8" cx="250.16" cy="113.98" r="10.14"/></svg>