<svg width="67" height="67" viewBox="0 0 67 67" fill="none" xmlns="http://www.w3.org/2000/svg">
<g clip-path="url(#clip0_26_695)">
<path d="M14.9835 20.0661C17.7333 20.0661 19.9625 17.8253 19.9625 15.0612C19.9625 12.297 17.7333 10.0563 14.9835 10.0563C12.2336 10.0563 10.0044 12.297 10.0044 15.0612C10.0044 17.8253 12.2336 20.0661 14.9835 20.0661Z" fill="#FF4180"/>
<path d="M52.0166 23.3838C43.7414 23.3838 37.0331 30.127 37.0331 38.445C37.0331 44.5074 40.6042 49.7192 45.7404 52.1077C45.8142 52.363 45.8949 52.6219 45.9751 52.8805H17.07V39.3888C18.3066 36.7458 20.1604 32.5173 21.258 28.7244C26.395 26.3363 29.9668 21.124 29.9668 15.0612C29.9669 6.74307 23.2586 0 14.9834 0C6.70834 0 0 6.74307 0 15.0612C0 21.1236 3.5711 26.3354 8.70726 28.7237C9.80005 32.5033 11.6436 36.713 12.8825 39.3574V57.068H47.4627C49.0357 61.0642 50.7946 64.5857 51.1384 65.2599L52.0166 67L52.9003 65.2599C53.3797 64.3051 56.6665 57.7226 58.2912 52.1084C63.4282 49.7203 67 44.508 67 38.445C67 30.127 60.2918 23.3838 52.0166 23.3838ZM12.2008 25.7302L10.4731 24.9267C6.65488 23.1512 4.18764 19.2786 4.18764 15.0612C4.18764 9.06537 9.03078 4.1875 14.9835 4.1875C20.9364 4.1875 25.7794 9.06537 25.7794 15.0612C25.7794 19.2792 23.3118 23.1519 19.4929 24.9271L17.7653 25.7302L17.2357 27.5604C16.6503 29.5835 15.8136 31.7822 14.982 33.7691C14.1555 31.7952 13.3185 29.596 12.7301 27.5607L12.2008 25.7302ZM56.526 48.3111L54.7985 49.1143L54.2689 50.9443C53.6835 52.9672 52.8469 55.1662 52.0152 57.153C51.1887 55.1791 50.3519 52.9802 49.7634 50.9446L49.2341 49.1141L47.5063 48.3107C43.6881 46.5351 41.2209 42.6626 41.2209 38.4451C41.2209 32.4493 46.064 27.5715 52.0169 27.5715C57.9698 27.5715 62.8128 32.4493 62.8128 38.4451C62.8125 42.6631 60.3448 46.5357 56.526 48.3111Z" fill="#FF4180"/>
<path d="M52.0164 43.4499C54.7663 43.4499 56.9955 41.2092 56.9955 38.445C56.9955 35.6809 54.7663 33.4401 52.0164 33.4401C49.2666 33.4401 47.0374 35.6809 47.0374 38.445C47.0374 41.2092 49.2666 43.4499 52.0164 43.4499Z" fill="#FF4180"/>
</g>
<defs>
<clipPath id="clip0_26_695">
<rect width="67" height="67" fill="white"/>
</clipPath>
</defs>
</svg>
