<svg width="64" height="67" viewBox="0 0 64 67" fill="none" xmlns="http://www.w3.org/2000/svg">
<g clip-path="url(#clip0_71_81)">
<path d="M0 3.23482C0 7.32287 0.0770466 9.81967 0.28764 12.8242C1.50498 30.2651 6.67737 44.5812 15.512 54.9609C16.8424 56.5208 18.2189 57.9393 19.8266 59.4154C23.4016 62.6869 27.9063 65.571 31.2706 66.7435L32 66.9948L32.7345 66.7435C35.1846 65.8903 38.364 64.0635 41.2713 61.8284C48.1798 56.5312 53.7682 49.0565 57.6154 39.9644C60.9644 32.0553 63.0087 22.9475 63.7124 12.8242C63.9281 9.76732 64.0103 6.77326 63.9897 2.92076L63.9743 0.0104446L62.1766 0.821777C59.5005 2.02568 58.4578 2.47584 57.0761 3.02021C52.4276 4.84701 48.6677 5.86248 46.5618 5.86248C43.9936 5.86248 38.5438 4.21365 33.1197 1.79537L32 1.2981L31.0395 1.72733C28.9798 2.64857 26.879 3.47037 24.7576 4.19271C20.8077 5.53271 18.2909 6.02474 16.488 5.81537C14.834 5.6217 12.7897 5.09826 10.1136 4.18748C7.62247 3.33951 5.89149 2.64857 2.79936 1.25623C1.70016 0.758965 0.616372 0.277397 0.400642 0.177948L0 0.00521088V3.23482ZM32.7037 8.01381C39.078 10.6153 44.0398 11.9082 47.0498 11.7564C48.8783 11.6622 50.974 11.2486 53.6244 10.453C54.513 10.1861 56.9014 9.37998 57.7233 9.06592L58.1496 8.90365L58.1188 9.54224C57.8671 14.5149 57.4665 18.247 56.7525 22.2879C54.4668 35.2012 49.4588 45.806 42.0931 53.3121C39.1551 56.3062 36.0218 58.6669 32.8372 60.2948L32.0103 60.7187L31.6559 60.5512C30.5978 60.0487 29.1031 59.1746 27.8909 58.3476C20.6331 53.4063 14.7775 45.649 11.0177 35.9863C8.62408 29.8464 7.04719 22.937 6.29727 15.3367C6.10722 13.4523 6.03018 12.3531 5.87608 9.51607L5.84526 8.90365L6.27673 9.06592C7.07801 9.37474 9.47673 10.1861 10.3756 10.453C11.9422 10.9241 13.5499 11.3167 14.6132 11.4894C14.8957 11.5313 15.2655 11.5941 15.435 11.6203C15.6045 11.6465 16.1181 11.6988 16.5804 11.7354C18.4963 11.8768 20.8437 11.5156 24.1258 10.5682C25.9236 10.05 29.1236 8.90889 31.2295 8.03998C31.6096 7.88295 31.9538 7.75209 31.9846 7.74685C32.0205 7.74685 32.3441 7.86724 32.7037 8.01381Z" fill="#FF4180"/>
</g>
<defs>
<clipPath id="clip0_71_81">
<rect width="64" height="67" fill="white"/>
</clipPath>
</defs>
</svg>
