<svg id="Слой_1" data-name="Слой 1" xmlns="http://www.w3.org/2000/svg" viewBox="0 0 367.45 127.15"><defs><style>.cls-1{fill:#d3d3d3;}.cls-2{fill:#0f222c;}.cls-3{fill:#1a2247;}.cls-4{fill:#282828;}.cls-5{fill:#ffae2c;}.cls-6{fill:#111;}.cls-7{fill:#ff4180;}.cls-8{fill:#0f0f0f;}.cls-9{fill:#efefef;}</style></defs><path class="cls-1" d="M80,33.28v80.6H35.17v.1H0V92.65A21,21,0,0,1,17.55,71.92l2.9-.49a6.37,6.37,0,0,0,3.64-2v0L50.36,39.73a19,19,0,0,1,14.11-6.39Z"/><path class="cls-2" d="M72.33,38.93H59.85a4.51,4.51,0,0,0-3.47,1.62L31,70.63a1.17,1.17,0,0,0,1,1.9H72.33A4.54,4.54,0,0,0,76.87,68V43.48A4.55,4.55,0,0,0,72.33,38.93Z"/><path class="cls-3" d="M363.44,0h-256V114h256Z"/><path class="cls-4" d="M363.53,114.05h-256v-10.2H363.39c2.24,0,4.06,1.1,4.06,2.5v5.2C367.45,113,365.63,114.05,363.53,114.05Z"/><path class="cls-5" d="M8.6,88.23H4.28C1.92,88.23,0,87.14,0,85.79V83.06c0-1,1.44-1.83,3.21-1.83H8.6c1.17,0,2.11.54,2.11,1.2V87C10.71,87.69,9.77,88.23,8.6,88.23Z"/><path class="cls-1" d="M107.48,33.28H80v80.6h27.5Z"/><path class="cls-6" d="M81.08,33.28H80v80.6h1.1Z"/><path class="cls-2" d="M101.56,38.88H87.33a3.47,3.47,0,0,0-3.47,3.47V69.12a3.46,3.46,0,0,0,3.47,3.46h14.23A3.47,3.47,0,0,0,105,69.12V42.35A3.48,3.48,0,0,0,101.56,38.88Z"/><path class="cls-7" d="M205.75,31.76,195.46,42h62.8l-22,21.83h14.42l24.74-24.6L268.11,32Z"/><path class="cls-7" d="M265.18,82.22,275.46,72h-62.8l22-21.84H220.21L195.46,74.77l7.35,7.31Z"/><circle class="cls-8" cx="23.88" cy="113.98" r="13.17"/><circle class="cls-9" cx="23.88" cy="113.98" r="10.14"/><circle class="cls-8" cx="277.66" cy="113.98" r="13.17"/><circle class="cls-9" cx="277.66" cy="113.98" r="10.14"/></svg>