<svg width="266" height="51" viewBox="0 0 266 51" fill="none" xmlns="http://www.w3.org/2000/svg">
<path d="M10.2823 0L0 10.2261H62.7988L40.8408 32.0641H55.2553L80 7.45455L72.6486 0.191142L10.2823 0Z" fill="#FF4180"/>
<path d="M69.7177 50.4615L80 40.2354H17.2012L39.2072 18.3974H24.7447L0 43.007L7.35135 50.3182L69.7177 50.4615Z" fill="#FF4180"/>
<path d="M112.72 13.6H99.92V36H105.04V18.528H112.72V13.6ZM121.172 19.552C119.028 19.552 117.46 20.288 116.404 21.504V20H111.604V42.4H116.404V34.496C117.46 35.712 119.028 36.448 121.172 36.448C125.364 36.448 128.82 32.768 128.82 28C128.82 23.232 125.364 19.552 121.172 19.552ZM120.212 31.904C118.004 31.904 116.404 30.4 116.404 28C116.404 25.6 118.004 24.096 120.212 24.096C122.42 24.096 124.02 25.6 124.02 28C124.02 30.4 122.42 31.904 120.212 31.904ZM140.996 20L137.988 29.824L134.276 20H129.156L135.428 35.712C134.692 37.408 133.668 37.92 131.524 37.92V42.4C135.684 42.624 138.852 40.608 140.644 35.52L146.116 20H140.996ZM153.525 31.52L159.573 23.2V20H147.413V24.48H153.141L147.093 32.8V36H159.893V31.52H153.525ZM168.744 31.072L177.32 17.568V13.6H162.28V18.528H170.696L162.12 32.032V36H177.48V31.072H168.744ZM185.993 31.52L192.041 23.2V20H179.881V24.48H185.609L179.561 32.8V36H192.361V31.52H185.993ZM204.349 20V26.72C203.677 27.04 202.877 27.232 201.789 27.232C200.445 27.232 199.229 26.816 199.229 25.28V20H194.429V25.92C194.429 29.856 197.245 31.712 200.829 31.712C202.109 31.712 203.261 31.52 204.349 31.2V36H209.149V20H204.349ZM224.186 20L217.338 28V20H212.666V36H216.186L223.034 28V36H227.706V20H224.186ZM246.589 36L240.605 28L246.429 20H240.829L236.029 27.008V20H231.229V36H236.029V28.928L241.149 36H246.589ZM259.874 20L253.026 28V20H248.354V36H251.874L258.722 28V36H263.394V20H259.874Z" fill="white"/>
</svg>
